<svg width="24" height="24" viewBox="0 0 24 24" fill="none" xmlns="http://www.w3.org/2000/svg">
  <path fill-rule="evenodd" clip-rule="evenodd"
    d="M21.1249 13.2191C21.5562 13.5641 21.6261 14.1934 21.2811 14.6247L18.0811 18.6247C17.912 18.8361 17.6644 18.9699 17.3948 18.9955C17.1253 19.0211 16.8569 18.9363 16.651 18.7605L14.601 17.0105C14.1809 16.652 14.1311 16.0208 14.4897 15.6007C14.8483 15.1807 15.4795 15.1308 15.8995 15.4894L17.1643 16.5691L19.7194 13.3753C20.0644 12.944 20.6937 12.8741 21.1249 13.2191Z"
    fill="currentColor" />
  <path
    d="M13.3269 18.5234C12.0669 17.4434 11.9169 15.5534 12.9969 14.2934C13.9869 13.1334 15.6569 12.9134 16.9069 13.7234L17.3469 13.1734L14.9769 11.8134C15.4269 11.3134 15.7469 10.6834 15.8569 9.97338L16.1969 7.85338C16.5769 5.40338 14.5669 3.27338 12.0569 3.27338C9.5469 3.27338 7.5469 5.40338 7.93689 7.87338L8.2769 9.99338C8.3869 10.7034 8.7069 11.3334 9.1569 11.8334L6.1369 13.5734C5.2869 14.0634 4.6969 14.8934 4.5369 15.8534L4.3469 16.9734C4.0969 18.4834 5.32689 19.7734 6.82689 19.7734H14.7969L13.3269 18.5234Z"
    fill="currentColor" />
</svg>