<svg width="16" height="16" viewBox="0 0 16 16" fill="none" xmlns="http://www.w3.org/2000/svg">
  <path
    d="M7.99373 2C6.19996 2 4.82654 3.41272 5.09405 4.98264L5.38297 6.67823C5.5039 7.38792 5.97751 7.98281 6.63183 8.33191L3.23832 10.1555C2.66933 10.4613 2.2816 10.9735 2.17859 11.5556L2.01848 12.4603C1.87535 13.2691 2.58183 14 3.50675 14H9.04738L8.08767 12.8603C7.1983 11.8042 7.33348 10.2271 8.3896 9.33772C8.90095 8.90712 9.53443 8.71669 10.1528 8.75468L9.35901 8.33012C10.0116 7.98077 10.4838 7.38671 10.6045 6.67823L10.8934 4.98264C11.1609 3.41272 9.78751 2 7.99373 2Z"
    fill="currentColor" />
  <path
    d="M14.7649 10.6441C15.1207 10.2217 15.0666 9.59084 14.6441 9.23509C14.2217 8.87934 13.5908 8.93342 13.2351 9.35586L11.4737 11.4475L10.7649 10.6059C10.4092 10.1834 9.77831 10.1293 9.35586 10.4851C8.93342 10.8408 8.87934 11.4717 9.23509 11.8941L10.7088 13.6441C10.8988 13.8698 11.1787 14 11.4737 14C11.7687 14 12.0486 13.8698 12.2386 13.6441L14.7649 10.6441Z"
    fill="currentColor" />
</svg>