<svg width="24" height="24" viewBox="0 0 24 24" fill="none" xmlns="http://www.w3.org/2000/svg">
  <path fill-rule="evenodd" clip-rule="evenodd"
    d="M5 4.00003L3.89443 3.44725C2.56462 2.78235 1 3.74934 1 5.2361V12.764C1 14.2507 2.56462 15.2177 3.89443 14.5528L5 14V4.00003ZM20.1056 3.44725L19 4.00003L7 4.00003V14H10V22C10 23.1046 10.8954 24 12 24C13.1046 24 14 23.1046 14 22V14H19L20.1056 14.5528C21.4354 15.2177 23 14.2507 23 12.764V5.2361C23 3.74934 21.4354 2.78235 20.1056 3.44725Z"
    fill="currentColor" />
</svg>