<svg width="24" height="24" viewBox="0 0 24 24" fill="none" xmlns="http://www.w3.org/2000/svg">
  <path
    d="M12.9998 4C12.9998 3.44772 12.5521 3 11.9998 3C11.4475 3 10.9998 3.44772 10.9998 4V7C10.9998 7.55228 11.4475 8 11.9998 8C12.5521 8 12.9998 7.55228 12.9998 7V4Z"
    fill="currentColor" />
  <path
    d="M5.99983 4.13397C6.47812 3.85783 7.08971 4.02171 7.36586 4.5L8.86586 7.09808C9.142 7.57637 8.97812 8.18796 8.49983 8.4641C8.02154 8.74024 7.40995 8.57637 7.1338 8.09808L5.63381 5.5C5.35766 5.02171 5.52154 4.41012 5.99983 4.13397Z"
    fill="currentColor" />
  <path
    d="M17.9998 4.13398C17.5215 3.85784 16.9099 4.02171 16.6338 4.50001L15.1338 7.09808C14.8577 7.57638 15.0215 8.18797 15.4998 8.46411C15.9781 8.74025 16.5897 8.57638 16.8659 8.09808L18.3659 5.50001C18.642 5.02171 18.4781 4.41012 17.9998 4.13398Z"
    fill="currentColor" />
  <path
    d="M6.02637 19H13.5636C14.4864 19 15.3755 18.6524 16.0535 18.0263L20.1251 14.2672C20.6455 13.7868 20.794 13.0243 20.492 12.3837C20.0772 11.5038 18.9866 11.1843 18.1626 11.7013L15.5749 13.3249C14.8724 13.7657 14.0581 13.9955 13.2287 13.987L10.3296 13.9574C10.2508 13.9566 10.1873 13.8925 10.1873 13.8137C10.1873 13.7471 10.2331 13.6892 10.298 13.6738L12.9394 13.0491C13.8244 12.8398 14.4073 11.9944 14.2881 11.0927C14.1686 10.189 13.3829 9.52344 12.4718 9.55419L8.39304 9.69184C6.002 9.77253 4.09627 11.7177 4.06453 14.1099L4.02655 16.9735C4.01176 18.0883 4.91143 19 6.02637 19Z"
    fill="currentColor" />
</svg>