<svg width="24" height="24" viewBox="0 0 24 24" fill="none" xmlns="http://www.w3.org/2000/svg">
  <path fill-rule="evenodd" clip-rule="evenodd"
    d="M6 2H18C20.2091 2 22 3.79086 22 6V15.8721C21.739 15.6991 21.4382 15.5791 21.1116 15.5283L16.5402 14.8174L15.6828 14.684C15.641 14.6775 15.5994 14.6731 15.558 14.6707C15.4724 14.6657 15.3878 14.6692 15.3051 14.6806C14.7879 14.752 14.3476 15.1326 14.2199 15.6644C14.0626 16.3194 14.432 16.986 15.0708 17.1997L17.6489 18.0625C17.6893 18.076 17.7165 18.1138 17.7165 18.1564C17.7165 18.211 17.6722 18.2553 17.6175 18.2553H15.4542C14.3759 18.2553 13.3275 17.9014 12.4698 17.2479L9.29978 14.8326C8.71814 14.3894 7.88008 14.5531 7.50795 15.1825C7.21216 15.6829 7.30987 16.3223 7.74157 16.7115L12.8672 21.3321C13.3441 21.7621 13.9635 22 14.6056 22H6C3.79086 22 2 20.2091 2 18V6C2 3.79086 3.79086 2 6 2ZM8.99955 11.5C8.99955 11.892 9.04969 12.2724 9.14389 12.6349C9.62445 12.7231 10.0934 12.9228 10.5119 13.2417L12.4342 14.7064C13.0062 13.3203 14.4653 12.4706 15.9902 12.7078L17.75 12.9815C17.9117 12.5176 17.9996 12.019 17.9996 11.5C17.9996 9.01472 15.9848 7 13.4996 7C11.0143 7 8.99955 9.01472 8.99955 11.5Z"
    fill="currentColor" />
</svg>