<svg width="12" height="12" viewBox="0 0 12 12" fill="none" xmlns="http://www.w3.org/2000/svg">
  <path fill-rule="evenodd" clip-rule="evenodd"
    d="M6 12C9.31371 12 12 9.31371 12 6C12 2.68629 9.31371 0 6 0C2.68629 0 0 2.68629 0 6C0 9.31371 2.68629 12 6 12ZM8.7979 4.85619C9.08917 4.56168 9.08655 4.08681 8.79204 3.79554C8.49753 3.50427 8.02267 3.5069 7.7314 3.8014L4.83983 6.7251L3.83177 5.56024C3.56072 5.24702 3.08708 5.21284 2.77387 5.48389C2.46065 5.75494 2.42647 6.22859 2.69752 6.5418L4.23598 8.31958C4.37276 8.47763 4.56928 8.57143 4.77817 8.57838C4.98707 8.58533 5.18939 8.5048 5.33636 8.35619L8.7979 4.85619Z"
    fill="currentColor" />
</svg>