<svg width="24" height="24" viewBox="0 0 24 24" fill="none" xmlns="http://www.w3.org/2000/svg">
  <path fill-rule="evenodd" clip-rule="evenodd"
    d="M4.5 7.5C4.5 6.39543 5.39543 5.5 6.5 5.5H17.5C18.6046 5.5 19.5 6.39543 19.5 7.5V15.5C19.5 16.6046 18.6046 17.5 17.5 17.5H11.8661C11.8554 17.5185 11.844 17.5367 11.8321 17.5547L9.83205 20.5547C9.5257 21.0142 8.90483 21.1384 8.4453 20.8321C7.98577 20.5257 7.8616 19.9048 8.16795 19.4453L9.46482 17.5H6.5C5.39543 17.5 4.5 16.6046 4.5 15.5V7.5ZM8.5 12.5C9.05228 12.5 9.5 12.0523 9.5 11.5C9.5 10.9477 9.05228 10.5 8.5 10.5C7.94772 10.5 7.5 10.9477 7.5 11.5C7.5 12.0523 7.94772 12.5 8.5 12.5ZM15.5 12.5C16.0523 12.5 16.5 12.0523 16.5 11.5C16.5 10.9477 16.0523 10.5 15.5 10.5C14.9477 10.5 14.5 10.9477 14.5 11.5C14.5 12.0523 14.9477 12.5 15.5 12.5ZM13 11.5C13 12.0523 12.5523 12.5 12 12.5C11.4477 12.5 11 12.0523 11 11.5C11 10.9477 11.4477 10.5 12 10.5C12.5523 10.5 13 10.9477 13 11.5Z"
    fill="currentColor" />
</svg>