<svg width="16" height="16" viewBox="0 0 16 16" fill="none" xmlns="http://www.w3.org/2000/svg">
  <path fill-rule="evenodd" clip-rule="evenodd"
    d="M2 3.5C2 2.67157 2.73263 2 3.63636 2H12.3636C13.2674 2 14 2.67157 14 3.5V10.5C14 11.3284 13.2674 12 12.3636 12H8.86825L7.89465 13.9472C7.64766 14.4412 7.04698 14.6414 6.55301 14.3944C6.05903 14.1474 5.8588 13.5468 6.10579 13.0528L6.63218 12H3.63636C2.73262 12 2 11.3284 2 10.5V3.5ZM7.29688 7C7.29688 6.44772 6.84917 6 6.29688 6C5.7446 6 5.29688 6.44772 5.29688 7C5.29688 7.55228 5.7446 8 6.29688 8C6.84917 8 7.29688 7.55228 7.29688 7ZM10.7969 7C10.7969 6.44772 10.3492 6 9.79688 6C9.2446 6 8.79688 6.44772 8.79688 7C8.79688 7.55228 9.2446 8 9.79688 8C10.3492 8 10.7969 7.55228 10.7969 7Z"
    fill="currentColor" />
</svg>