<svg width="24" height="24" viewBox="0 0 24 24" fill="none" xmlns="http://www.w3.org/2000/svg">
  <path fill-rule="evenodd" clip-rule="evenodd"
    d="M10 5C8.89543 5 8 5.89543 8 7V14C8 15.1046 8.89543 16 10 16H16C17.1046 16 18 15.1046 18 14V7C18 5.89543 17.1046 5 16 5H10ZM6.5 8.5C6.5 7.94772 6.05228 7.5 5.5 7.5C4.94772 7.5 4.5 7.94772 4.5 8.5V16.5C4.5 18.1569 5.84315 19.5 7.5 19.5H14.5C15.0523 19.5 15.5 19.0523 15.5 18.5C15.5 17.9477 15.0523 17.5 14.5 17.5H7.5C6.94772 17.5 6.5 17.0523 6.5 16.5V8.5Z"
    fill="currentColor" />
</svg>