<svg width="16" height="16" viewBox="0 0 16 16" fill="none" xmlns="http://www.w3.org/2000/svg">
  <path fill-rule="evenodd" clip-rule="evenodd"
    d="M13.1641 14H14.6185C15.4625 14 16.109 13.2754 15.9842 12.4695L15.8445 11.5675C15.7533 10.9785 15.3951 10.4594 14.8672 10.1515L11.7454 8.33012C12.3436 7.98077 12.7765 7.38671 12.8871 6.67823L13.152 4.98264C13.3972 3.41272 12.1382 2 10.4939 2C10.2549 2 10.024 2.02985 9.80476 2.08569C10.4764 2.92732 10.819 4.03107 10.6342 5.21413L10.3694 6.90972C10.3123 7.27516 10.204 7.62049 10.0532 7.93983L11.6233 8.85586C12.53 9.38489 13.1647 10.2893 13.3271 11.338L13.4667 12.24C13.5665 12.8838 13.4431 13.4895 13.1641 14Z"
    fill="currentColor" />
  <path fill-rule="evenodd" clip-rule="evenodd"
    d="M6.49426 2C4.84997 2 3.59099 3.41272 3.83621 4.98264L4.10106 6.67823C4.21191 7.38792 4.64605 7.98281 5.24584 8.33191L2.13512 10.1555C1.61355 10.4613 1.25813 10.9735 1.16371 11.5556L1.01694 12.4603C0.885736 13.2691 1.53334 14 2.38118 14H5.89282H7.09434H10.6188C11.4628 14 12.1093 13.2754 11.9845 12.4695L11.8449 11.5675C11.7537 10.9785 11.3954 10.4594 10.8675 10.1515L7.74575 8.33012C8.34395 7.98077 8.7768 7.38671 8.88746 6.67823L9.1523 4.98264C9.39752 3.41272 8.13855 2 6.49426 2Z"
    fill="currentColor" />
</svg>