<svg width="24" height="24" viewBox="0 0 24 24" fill="none" xmlns="http://www.w3.org/2000/svg">
  <path fill-rule="evenodd" clip-rule="evenodd"
    d="M18.5503 20H20.1165C21.2673 20 22.149 19.0339 21.9788 17.9593L21.7883 16.7567C21.6639 15.9714 21.1754 15.2793 20.4556 14.8686L16.1986 12.4402C17.0143 11.9744 17.6046 11.1823 17.7555 10.2376L18.1166 7.97686C18.451 5.88362 16.7342 4 14.492 4C14.2946 4 14.1013 4.0146 13.9131 4.04266C14.8587 5.16746 15.3521 6.66411 15.092 8.29235L14.7308 10.5531C14.6537 11.0359 14.5091 11.491 14.3087 11.9116L16.447 13.1314C17.6683 13.8281 18.5402 15.0302 18.7641 16.4438L18.9545 17.6465C19.0923 18.5163 18.9251 19.3231 18.5503 20Z"
    fill="currentColor" />
  <path fill-rule="evenodd" clip-rule="evenodd"
    d="M9.49217 4C7.24995 4 5.53317 5.88362 5.86756 7.97686L6.22871 10.2376C6.37987 11.1839 6.97189 11.9771 7.78978 12.4426L3.5479 14.874C2.83666 15.2817 2.352 15.9647 2.22324 16.7408L2.0231 17.9471C1.84419 19.0255 2.72729 20 3.88343 20H8.67203H10.3105H15.1166C16.2675 20 17.1491 19.0339 16.9789 17.9593L16.7885 16.7567C16.6641 15.9714 16.1755 15.2793 15.4557 14.8686L11.1988 12.4402C12.0145 11.9744 12.6047 11.1823 12.7556 10.2376L13.1168 7.97686C13.4512 5.88362 11.7344 4 9.49217 4Z"
    fill="currentColor" />
</svg>