<svg width="24" height="24" viewBox="0 0 24 24" fill="none" xmlns="http://www.w3.org/2000/svg">
  <path fill-rule="evenodd" clip-rule="evenodd"
    d="M4.5 6C4.5 4.89543 5.39543 4 6.5 4H17.5C18.6046 4 19.5 4.89543 19.5 6V8.40779C18.6411 8.02865 17.7361 7.89339 16.9267 7.91318C15.7917 7.94093 14.5329 8.27942 13.4806 9.06911C12.3578 9.91169 11.5 11.2712 11.5 13C11.5 14.4896 12.5857 15.7257 14.0089 15.96C14.0029 16.055 14 16.1497 14 16.2441C14 16.709 14.1057 17.1491 14.2944 17.5418C14.1057 17.9345 14 18.3746 14 18.8394V18.9113C14 19.2953 14.0722 19.6625 14.2037 20H6.5C5.39543 20 4.5 19.1046 4.5 18V6ZM15.5 13C15.5 12.6891 15.6307 12.4566 15.8815 12.2684C16.1557 12.0626 16.5694 11.9231 17.0244 11.912C17.4807 11.9008 17.8746 12.0207 18.127 12.2059C18.346 12.3667 18.5 12.6003 18.5 13C18.5 13.351 18.4098 13.498 18.3408 13.5809C18.2431 13.6982 18.0875 13.8051 17.7853 13.9636C17.7518 13.9812 17.7136 14.0007 17.6718 14.022C17.4181 14.1514 17.0312 14.3487 16.7306 14.6128C16.3026 14.9889 16 15.5205 16 16.2441C16 16.7964 16.4477 17.2441 17 17.2441C17.5523 17.2441 18 16.7964 18 16.2441C18 16.1592 18.0086 16.1518 18.0427 16.1222L18.0507 16.1153C18.1487 16.0292 18.2735 15.9643 18.5329 15.8294C18.5873 15.8011 18.6475 15.7698 18.7147 15.7346C19.0375 15.5652 19.5069 15.3062 19.878 14.8603C20.2777 14.3801 20.5 13.7665 20.5 13C20.5 11.9467 20.029 11.1212 19.3105 10.5937C18.6254 10.0907 17.7693 9.89317 16.9756 9.91258C16.1806 9.93202 15.3443 10.171 14.681 10.6688C13.9943 11.1841 13.5 11.9802 13.5 13C13.5 13.5523 13.9477 14 14.5 14C15.0523 14 15.5 13.5523 15.5 13ZM18 18.8394C18 18.2872 17.5523 17.8394 17 17.8394C16.4477 17.8394 16 18.2872 16 18.8394V18.9113C16 19.4636 16.4477 19.9113 17 19.9113C17.5523 19.9113 18 19.4636 18 18.9113V18.8394Z"
    fill="currentColor" />
</svg>