<svg width="24" height="24" viewBox="0 0 24 24" fill="none" xmlns="http://www.w3.org/2000/svg">
  <path fill-rule="evenodd" clip-rule="evenodd"
    d="M4.5 6C4.5 4.89543 5.39543 4 6.5 4H17.5C18.6046 4 19.5 4.89543 19.5 6V18C19.5 19.1046 18.6046 20 17.5 20H6.5C5.39543 20 4.5 19.1046 4.5 18V6ZM8.5 9C8.5 8.44772 8.94772 8 9.5 8H14.5C15.0523 8 15.5 8.44772 15.5 9C15.5 9.55228 15.0523 10 14.5 10H9.5C8.94772 10 8.5 9.55228 8.5 9ZM9.5 13C8.94772 13 8.5 13.4477 8.5 14C8.5 14.5523 8.94772 15 9.5 15H11.5C12.0523 15 12.5 14.5523 12.5 14C12.5 13.4477 12.0523 13 11.5 13H9.5Z"
    fill="currentColor" />
</svg>