<svg width="16" height="16" viewBox="0 0 16 16" fill="none" xmlns="http://www.w3.org/2000/svg">
  <path fill-rule="evenodd" clip-rule="evenodd"
    d="M2.5 3.5C2.5 2.67157 3.17157 2 4 2H12C12.8284 2 13.5 2.67157 13.5 3.5V4.59353C12.9662 4.43677 12.4301 4.38035 11.9411 4.39187C11.0353 4.4132 10.0194 4.67288 9.16039 5.29382C8.24256 5.95731 7.5 7.06095 7.5 8.50001C7.5 9.70961 8.35905 10.7186 9.50034 10.9501C9.50011 10.9667 9.5 10.9834 9.5 11C9.5 11.444 9.61574 11.8609 9.81868 12.2223C9.61574 12.5837 9.5 13.0007 9.5 13.4447V13.5C9.5 13.6712 9.51721 13.8384 9.55001 14H4C3.17157 14 2.5 13.3284 2.5 12.5V3.5ZM11 8.50001C11 8.35782 11.053 8.24442 11.2108 8.1303C11.3923 7.99917 11.6859 7.89885 12.0235 7.8909C12.3626 7.88291 12.6374 7.97009 12.7976 8.08336C12.9227 8.1718 13 8.28286 13 8.50001C13 8.70743 12.95 8.76485 12.9322 8.78526L12.9308 8.78683C12.8825 8.84274 12.7904 8.91039 12.5489 9.03249C12.5249 9.04461 12.4966 9.05846 12.4649 9.074L12.4648 9.07404C12.265 9.1719 11.9284 9.33679 11.6665 9.55847C11.2838 9.88234 11 10.3556 11 11C11 11.5523 11.4477 12 12 12C12.5339 12 12.9701 11.5816 12.9985 11.0548C13.0544 11.0167 13.1357 10.976 13.2986 10.8942L13.2987 10.8941L13.2994 10.8938C13.3436 10.8716 13.3938 10.8464 13.4511 10.8174C13.7096 10.6868 14.1175 10.4725 14.4442 10.0944C14.8027 9.67944 15 9.14815 15 8.50001C15 7.5975 14.5773 6.89237 13.9524 6.45043C13.3626 6.0333 12.6374 5.87589 11.9765 5.89145C11.3141 5.90705 10.6077 6.09843 10.0392 6.50946C9.44702 6.9375 9 7.61675 9 8.50001C9 9.0523 9.44772 9.50001 10 9.50001C10.5523 9.50001 11 9.0523 11 8.50001ZM13 13.4447C13 12.8924 12.5523 12.4447 12 12.4447C11.4477 12.4447 11 12.8924 11 13.4447V13.5C11 14.0523 11.4477 14.5 12 14.5C12.5523 14.5 13 14.0523 13 13.5V13.4447Z"
    fill="currentColor" />
</svg>