<svg width="24" height="24" viewBox="0 0 24 24" fill="none" xmlns="http://www.w3.org/2000/svg">
  <path
    d="M11 5.39953C10.4692 4.92449 9.76835 4.63564 9 4.63564L5.5 4.63563C4.67157 4.63563 4 5.3072 4 6.13563V15.3644C4 16.1928 4.67157 16.8644 5.5 16.8644L7.35387 16.8644C8.88696 16.8644 10.3619 17.4513 11.4759 18.5045L12 19L12.5241 18.5045C13.6381 17.4513 15.113 16.8644 16.6461 16.8644L18.4999 16.8644C19.3284 16.8644 19.9999 16.1928 19.9999 15.3644L20 6.00001C20 5.17158 19.3284 4.5 18.5 4.5L15.0001 4.50002C14.2317 4.50002 13.5308 4.78889 13 5.26396V13.5C13 14.0523 12.5523 14.5 12 14.5C11.4477 14.5 11 14.0523 11 13.5V5.39953Z"
    fill="currentColor" />
</svg>