<svg width="16" height="16" viewBox="0 0 16 16" fill="none" xmlns="http://www.w3.org/2000/svg">
  <path
    d="M7.25 3.43866C6.9076 3.16418 6.47297 3 6 3H2.5C1.94772 3 1.5 3.44772 1.5 4V11.5C1.5 12.0523 1.94772 12.5 2.5 12.5H4.84315C5.90401 12.5 6.92143 12.9214 7.67157 13.6716C7.85296 13.853 8.14704 13.853 8.32843 13.6716C9.07857 12.9214 10.096 12.5 11.1569 12.5H13.5C14.0523 12.5 14.5 12.0523 14.5 11.5V4C14.5 3.44772 14.0523 3 13.5 3H10C9.52703 3 9.0924 3.16418 8.75 3.43866V10C8.75 10.4142 8.41421 10.75 8 10.75C7.58579 10.75 7.25 10.4142 7.25 10V3.43866Z"
    fill="currentColor" />
</svg>