<svg width="16" height="16" viewBox="0 0 16 16" fill="none" xmlns="http://www.w3.org/2000/svg">
  <path fill-rule="evenodd" clip-rule="evenodd"
    d="M8 1C4.13401 1 1 4.13401 1 8C1 11.866 4.13401 15 8 15C11.866 15 15 11.866 15 8C15 4.13401 11.866 1 8 1ZM10.5549 7.2545C10.8336 6.94801 10.811 6.47367 10.5045 6.19504C10.198 5.91641 9.72367 5.939 9.44504 6.24549L7.47414 8.41348L6.53032 7.46967C6.23743 7.17678 5.76256 7.17678 5.46967 7.46967C5.17677 7.76256 5.17677 8.23744 5.46967 8.53033L6.96967 10.0303C7.11469 10.1754 7.31279 10.2547 7.51784 10.2498C7.72288 10.2449 7.91698 10.1563 8.05495 10.0045L10.5549 7.2545Z"
    fill="currentColor" />
</svg>