<svg width="24" height="24" viewBox="0 0 24 24" fill="none" xmlns="http://www.w3.org/2000/svg">
  <path fill-rule="evenodd" clip-rule="evenodd"
    d="M12 23C18.0751 23 23 18.0751 23 12C23 5.92487 18.0751 1 12 1C5.92487 1 1 5.92487 1 12C1 18.0751 5.92487 23 12 23ZM16.2448 10.1673C16.6133 9.75599 16.5786 9.12378 16.1673 8.75523C15.756 8.38668 15.1238 8.42136 14.7552 8.83268L10.9773 13.0491L9.20428 11.2901C8.81221 10.9011 8.17905 10.9036 7.79008 11.2957C7.40112 11.6878 7.40364 12.321 7.79572 12.7099L10.3157 15.2099C10.5103 15.4029 10.7755 15.5076 11.0494 15.4996C11.3233 15.4915 11.5819 15.3714 11.7648 15.1673L16.2448 10.1673Z"
    fill="currentColor" />
</svg>