<svg width="24" height="24" viewBox="0 0 24 24" fill="none" xmlns="http://www.w3.org/2000/svg">
  <path fill-rule="evenodd" clip-rule="evenodd"
    d="M9.02498 11H14.9752C14.851 8.50052 14.2772 6.26242 13.5868 4.60672C13.1948 3.66674 12.779 2.94783 12.413 2.48343C12.2432 2.26802 12.1024 2.13067 12.0001 2.05173C11.8978 2.13067 11.7569 2.26802 11.5871 2.48343C11.2211 2.94783 10.8054 3.66674 10.4134 4.60672C9.72295 6.26242 9.14914 8.50052 9.02498 11ZM14.9765 13C14.8587 15.5066 14.3115 17.747 13.6367 19.4003C13.2536 20.339 12.844 21.0522 12.477 21.5109C12.2933 21.7406 12.1414 21.8796 12.0339 21.954C12.0213 21.9627 12.01 21.97 12.0001 21.9762C11.9901 21.97 11.9789 21.9627 11.9663 21.954C11.8587 21.8796 11.7069 21.7406 11.5231 21.5109C11.1562 21.0522 10.7466 20.339 10.3634 19.4003C9.68862 17.747 9.1415 15.5066 9.02363 13H14.9765ZM16.9785 13H22.9552C22.5098 17.9426 18.795 21.9425 13.9899 22.8205C14.0063 22.8005 14.0226 22.7805 14.0388 22.7603C14.5624 22.1057 15.0591 21.2079 15.4884 20.1561C16.2584 18.2696 16.8594 15.7703 16.9785 13ZM22.9552 11H16.9774C16.8518 8.2225 16.2183 5.72089 15.4327 3.83693C14.9945 2.7863 14.4952 1.8943 13.9838 1.24543C13.9631 1.21912 13.9422 1.19303 13.9211 1.16717C18.7595 2.01933 22.5077 6.03378 22.9552 11ZM7.02273 11H1.04492C1.49245 6.03378 5.24067 2.01933 10.079 1.16717C10.058 1.19303 10.0371 1.21912 10.0163 1.24543C9.50495 1.8943 9.00562 2.7863 8.56748 3.83693C7.78184 5.72089 7.14831 8.2225 7.02273 11ZM7.02161 13H1.04492C1.49033 17.9426 5.20516 21.9425 10.0102 22.8205C9.99384 22.8005 9.97757 22.7805 9.9614 22.7603C9.43774 22.1057 8.94107 21.2079 8.51173 20.1561C7.74174 18.2696 7.14074 15.7703 7.02161 13ZM12.1028 1.98513L12.1002 1.9862C12.102 1.98541 12.1028 1.98509 12.1028 1.98513ZM11.8999 1.9862L11.8973 1.98513C11.8973 1.98509 11.8982 1.98541 11.8999 1.9862Z"
    fill="currentColor" />
</svg>