<svg width="20" height="22" viewBox="0 0 20 22" fill="none" xmlns="http://www.w3.org/2000/svg">
  <path fill-rule="evenodd" clip-rule="evenodd"
    d="M11.4336 1.00352C10.5728 0.400955 9.42708 0.400957 8.56628 1.00353L1.06633 6.25356C0.398022 6.72138 0 7.48585 0 8.30163V20C0 21.1045 0.895431 22 2 22H18C19.1045 22 19.9999 21.1045 20 20L20 8.30165C20 7.48586 19.602 6.72138 18.9337 6.25356L11.4336 1.00352ZM9.99995 13C9.44766 13 8.99995 13.4477 8.99995 14V17C8.99995 17.5523 9.44766 18 9.99995 18C10.5522 18 10.9999 17.5523 10.9999 17V14C10.9999 13.4477 10.5522 13 9.99995 13Z"
    fill="currentColor" />
</svg>