<svg width="24" height="24" viewBox="0 0 24 24" fill="none" xmlns="http://www.w3.org/2000/svg">
  <path
    d="M3 6.45453C1.89543 6.45453 1 7.34996 1 8.45453V15.5454C1 16.65 1.89543 17.5454 3 17.5454H5.46062C6.64046 17.5454 7.79413 17.8933 8.77732 18.5455L13.8944 21.9399C15.2238 22.8218 17 21.8686 17 20.2733V3.72671C17 2.1314 15.2238 1.1782 13.8944 2.06006L8.77732 5.45448C7.79413 6.10668 6.64046 6.45453 5.46062 6.45453H3Z"
    fill="currentColor" />
  <path
    d="M23 12C23 14.9611 21.3912 17.5465 19 18.9297V16.4722C20.2275 15.3736 21 13.777 21 12C21 10.223 20.2275 8.62641 19 7.52777V5.07024C21.3912 6.45348 23 9.03885 23 12Z"
    fill="currentColor" />
</svg>