<svg width="16" height="16" viewBox="0 0 16 16" fill="none" xmlns="http://www.w3.org/2000/svg">
  <path
    d="M2.29085 6.35686C1.49066 6.57127 1.01578 7.39378 1.23019 8.19398L1.87724 10.6088C2.09165 11.409 2.91416 11.8839 3.71436 11.6695L4.13208 11.5575L5.05165 14.3162C5.22629 14.8402 5.79261 15.1233 6.31656 14.9487C6.8405 14.774 7.12366 14.2077 6.94901 13.6838L6.09565 11.1237C7.64762 10.8793 9.23024 10.8644 10.7924 11.082L13.0739 11.3999C13.7829 11.4987 14.3631 10.8422 14.1778 10.1507L12.1119 2.44044C11.9266 1.74892 11.0959 1.47043 10.5312 1.91052L8.71431 3.32657C7.02501 4.64317 5.08857 5.60721 3.01978 6.16154L2.29085 6.35686Z"
    fill="currentColor" />
</svg>