<svg width="12" height="12" viewBox="0 0 12 12" fill="none" xmlns="http://www.w3.org/2000/svg">
  <path fill-rule="evenodd" clip-rule="evenodd"
    d="M6 12C9.31371 12 12 9.31371 12 6C12 2.68629 9.31371 0 6 0C2.68629 0 0 2.68629 0 6C0 9.31371 2.68629 12 6 12ZM5.25027 7.24545L4.53033 7.96539C4.23744 8.25828 3.76256 8.25828 3.46967 7.96539C3.17678 7.6725 3.17678 7.19762 3.46967 6.90473L5.46948 4.90492C5.76237 4.61203 6.23724 4.61203 6.53014 4.90492L8.53038 6.90517C8.82327 7.19806 8.82327 7.67293 8.53038 7.96583C8.23749 8.25872 7.76261 8.25872 7.46972 7.96583L6.75027 7.24638L6.75 9.06208C6.74994 9.47629 6.4141 9.81203 5.99989 9.81197C5.58567 9.8119 5.24994 9.47607 5.25 9.06185L5.25027 7.24545ZM4.5 3.75C4.08579 3.75 3.75 3.41421 3.75 3C3.75 2.58579 4.08579 2.25 4.5 2.25L7.5 2.25C7.91421 2.25 8.25 2.58579 8.25 3C8.25 3.41421 7.91421 3.75 7.5 3.75L4.5 3.75Z"
    fill="currentColor" />
</svg>