<svg width="16" height="16" viewBox="0 0 16 16" fill="none" xmlns="http://www.w3.org/2000/svg">
  <path
    d="M11.8166 7.31495C10.7794 7.74291 9.44975 8 8 8C6.36495 8 4.88265 7.67299 3.80044 7.14265C2.68936 6.59815 2 5.83933 2 5C2 3.34315 4.68629 2 8 2C11.3137 2 14 3.34315 14 5C14 5.83933 13.3106 6.59816 12.1996 7.14265C12.0769 7.20275 11.9491 7.26024 11.8166 7.31495Z"
    fill="currentColor" />
  <path
    d="M4.03745 11.7252C4.01276 11.815 4 11.9068 4 12C4 13.1046 5.79086 14 8 14C10.2091 14 12 13.1046 12 12C12 11.9068 11.9872 11.815 11.9625 11.7252C10.8463 12.2282 9.45513 12.5 8 12.5C6.54487 12.5 5.15371 12.2282 4.03745 11.7252Z"
    fill="currentColor" />
  <path
    d="M5.20022 10.5716C5.99905 10.842 6.96263 11 8 11C9.03736 11 10.0009 10.842 10.7998 10.5716C12.1274 10.1222 13 9.36203 13 8.5C13 8.47331 12.9992 8.44672 12.9975 8.42023C12.9694 8.43473 12.9414 8.44898 12.9135 8.46296C11.5785 9.13044 9.83923 9.5 8 9.5C6.16077 9.5 4.4215 9.13044 3.08654 8.46296C3.05857 8.44898 3.03055 8.43473 3.0025 8.42023C3.00084 8.44671 3 8.47331 3 8.5C3 9.36203 3.87259 10.1222 5.20022 10.5716Z"
    fill="currentColor" />
</svg>