<svg width="16" height="16" viewBox="0 0 16 16" fill="none" xmlns="http://www.w3.org/2000/svg">
  <path
    d="M10.5444 5.5433C9.85294 5.82861 8.9665 6 8 6C6.90993 6 5.9217 5.78198 5.20022 5.42839C4.45954 5.0654 4 4.55953 4 4C4 2.89543 5.79086 2 8 2C10.2091 2 12 2.89543 12 4C12 4.55953 11.5405 5.0654 10.7998 5.42839C10.718 5.46848 10.6328 5.50682 10.5444 5.5433Z"
    fill="currentColor" />
  <path
    d="M8 11.5C9.56309 11.5 11.0524 11.1864 12.2064 10.6094C12.6261 10.3995 13.0715 10.1149 13.4571 9.7512C13.8057 10.1314 14 10.5544 14 11C14 12.6569 11.3137 14 8 14C4.68629 14 2 12.6569 2 11C2 10.5544 2.19433 10.1314 2.54294 9.7512C2.9285 10.1149 3.37391 10.3995 3.79365 10.6094C4.94765 11.1864 6.43691 11.5 8 11.5Z"
    fill="currentColor" />
  <path
    d="M3.80044 8.85735C4.6913 9.54501 6.23938 10 8 10C9.76062 10 11.3087 9.54501 12.1996 8.85736C12.706 8.46647 13 8.0004 13 7.5C13 7.03978 12.7513 6.60861 12.3174 6.23825C12.0478 6.45223 11.7631 6.62394 11.4992 6.75585C10.5262 7.24237 9.28694 7.5 8 7.5C6.71306 7.5 5.47379 7.24237 4.50075 6.75585C4.23691 6.62394 3.95219 6.45222 3.68259 6.23825C3.24871 6.60861 3 7.03978 3 7.5C3 8.0004 3.29404 8.46647 3.80044 8.85735Z"
    fill="currentColor" />
</svg>