<svg width="24" height="24" viewBox="0 0 24 24" fill="none" xmlns="http://www.w3.org/2000/svg">
  <path fill-rule="evenodd" clip-rule="evenodd"
    d="M16.8246 5.51397C16.4695 4.88731 15.8049 4.5 15.0846 4.5H8.9155C8.19521 4.5 7.53056 4.88731 7.17545 5.51397L4.05878 11.014C3.71218 11.6256 3.71218 12.3744 4.05878 12.986L7.17545 18.486C7.53056 19.1127 8.19521 19.5 8.9155 19.5H15.0846C15.8049 19.5 16.4695 19.1127 16.8246 18.486L19.9413 12.986C20.2879 12.3744 20.2879 11.6256 19.9413 11.014L16.8246 5.51397ZM12.0002 14C13.1047 14 14.0002 13.1046 14.0002 12C14.0002 10.8954 13.1047 10 12.0002 10C10.8956 10 10.0002 10.8954 10.0002 12C10.0002 13.1046 10.8956 14 12.0002 14Z"
    fill="currentColor" />
</svg>