<svg width="16" height="16" viewBox="0 0 16 16" fill="none" xmlns="http://www.w3.org/2000/svg">
  <path
    d="M13 13C13 13.8284 12.3284 14.5 11.5 14.5C10.6716 14.5 10 13.8284 10 13C10 12.1716 10.6716 11.5 11.5 11.5C12.3284 11.5 13 12.1716 13 13Z"
    fill="currentColor" />
  <path
    d="M7 13C7 13.8284 6.32843 14.5 5.5 14.5C4.67157 14.5 4 13.8284 4 13C4 12.1716 4.67157 11.5 5.5 11.5C6.32843 11.5 7 12.1716 7 13Z"
    fill="currentColor" />
  <path
    d="M3 3H10C12.2091 3 14 4.79086 14 7C14 9.20914 12.2091 11 10 11H4.74596C4.2344 11 3.80532 10.6139 3.75151 10.1052L3 3Z"
    fill="currentColor" />
  <path d="M4.50026 5.16667L4.31276 3.66783C4.2293 3.00065 3.66212 2.5 2.98974 2.5H1.5" stroke="currentColor" stroke-width="2"
    stroke-linecap="round" stroke-linejoin="round" />
</svg>