<svg width="16" height="16" viewBox="0 0 16 16" fill="none" xmlns="http://www.w3.org/2000/svg">
  <path d="M8 0C8.55228 0 9 0.447715 9 1C9 1.55228 8.55229 2 8 2C7.44772 2 7 1.55228 7 1C7 0.447715 7.44772 0 8 0Z"
    fill="currentColor" />
  <path
    d="M13.6565 3.75736C14.047 3.36684 14.047 2.73367 13.6565 2.34315C13.266 1.95262 12.6328 1.95262 12.2423 2.34315C11.8517 2.73367 11.8517 3.36684 12.2423 3.75736C12.6328 4.14788 13.266 4.14788 13.6565 3.75736Z"
    fill="currentColor" />
  <path
    d="M2.75 8C2.75 5.1005 5.1005 2.75 8 2.75C10.8995 2.75 13.25 5.1005 13.25 8C13.25 10.8995 10.8995 13.25 8 13.25C5.1005 13.25 2.75 10.8995 2.75 8Z"
    fill="currentColor" />
  <path
    d="M16 8C16 8.55229 15.5523 9 15 9C14.4477 9 14 8.55229 14 8C14 7.44772 14.4477 7 15 7C15.5523 7 16 7.44772 16 8Z"
    fill="currentColor" />
  <path
    d="M3.75691 2.34315C3.36639 1.95262 2.73322 1.95262 2.3427 2.34315C1.95217 2.73367 1.95217 3.36684 2.3427 3.75736C2.73322 4.14788 3.36639 4.14788 3.75691 3.75736C4.14744 3.36684 4.14744 2.73367 3.75691 2.34315Z"
    fill="currentColor" />
  <path d="M0 8C0 7.44772 0.447715 7 1 7C1.55228 7 2 7.44772 2 8C2 8.55229 1.55228 9 1 9C0.447715 9 0 8.55229 0 8Z"
    fill="currentColor" />
  <path
    d="M2.34352 12.2426C1.953 12.6332 1.953 13.2663 2.34352 13.6569C2.73405 14.0474 3.36721 14.0474 3.75774 13.6569C4.14826 13.2663 4.14826 12.6332 3.75774 12.2426C3.36721 11.8521 2.73405 11.8521 2.34352 12.2426Z"
    fill="currentColor" />
  <path
    d="M8 16C7.44772 16 7 15.5523 7 15C7 14.4477 7.44772 14 8 14C8.55229 14 9 14.4477 9 15C9 15.5523 8.55228 16 8 16Z"
    fill="currentColor" />
  <path
    d="M12.2431 13.6569C12.6336 14.0474 13.2668 14.0474 13.6573 13.6569C14.0478 13.2663 14.0478 12.6332 13.6573 12.2426C13.2668 11.8521 12.6336 11.8521 12.2431 12.2426C11.8526 12.6332 11.8526 13.2663 12.2431 13.6569Z"
    fill="currentColor" />
</svg>