<svg width="16" height="16" viewBox="0 0 16 16" fill="none" xmlns="http://www.w3.org/2000/svg">
  <path fill-rule="evenodd" clip-rule="evenodd"
    d="M9.11805 2H9.85692C11.2599 2 11.895 3.75419 10.8172 4.65233L10.3221 5.06488C11.6297 5.30337 12.7528 6.18317 13.2851 7.43544L14.1351 9.43544C15.2562 12.0735 13.3202 15 10.4537 15H5.54626C2.67979 15 0.74374 12.0735 1.86493 9.43544L2.71493 7.43544C3.24715 6.18317 4.37025 5.30336 5.67785 5.06488L5.18279 4.65233C4.10502 3.75419 4.74012 2 6.14307 2H6.88194C7.1566 1.69313 7.55574 1.5 7.99999 1.5C8.44424 1.5 8.84339 1.69313 9.11805 2ZM5.75 9.76999C5.75 9.35577 6.08579 9.01999 6.5 9.01999H7.25V8.26999C7.25 7.85577 7.58579 7.51999 8 7.51999C8.41421 7.51999 8.75 7.85577 8.75 8.26999V9.01999H9.5C9.91421 9.01999 10.25 9.35577 10.25 9.76999C10.25 10.1842 9.91421 10.52 9.5 10.52H8.75V11.27C8.75 11.6842 8.41421 12.02 8 12.02C7.58579 12.02 7.25 11.6842 7.25 11.27V10.52H6.5C6.08579 10.52 5.75 10.1842 5.75 9.76999Z"
    fill="currentColor" />
</svg>