<svg width="24" height="24" viewBox="0 0 24 24" fill="none" xmlns="http://www.w3.org/2000/svg">
  <path fill-rule="evenodd" clip-rule="evenodd"
    d="M12 1C13.5369 1 15.0003 1.31521 16.3289 1.88451L14.9404 9.10133L14.3615 8.22526C14.0868 7.80955 13.4666 7.75491 12.9762 8.10322C12.4859 8.45153 12.3111 9.07088 12.5858 9.48659L14.5326 12.4326C14.5965 12.5293 14.6809 12.6083 14.7803 12.6667C14.907 12.7415 15.0603 12.7839 15.2319 12.7839C15.5493 12.7839 15.8602 12.6387 16.0869 12.4122L19.146 9.48659C19.5807 9.07088 19.6442 8.45153 19.2879 8.10322C18.9315 7.75491 18.2903 7.80955 17.8556 8.22526L16.9406 9.10037L18.139 2.8711C21.0713 4.8469 23 8.19822 23 12C23 18.0751 18.0751 23 12 23C10.3786 23 8.83907 22.6492 7.45327 22.0193L8.89764 14.5118L9.46598 15.3769C9.7396 15.7933 10.3594 15.8494 10.8504 15.502C11.3413 15.1546 11.5175 14.5354 11.2439 14.1189L9.30849 11.1729C9.23483 11.0608 9.13366 10.9724 9.01372 10.9121C8.91907 10.8643 8.81141 10.8336 8.69377 10.8235C8.66576 10.8211 8.6373 10.8199 8.60846 10.8199C8.60389 10.8199 8.59933 10.8199 8.59476 10.82C8.27989 10.824 7.97258 10.9702 7.74857 11.196L4.70365 14.1189C4.26977 14.5354 4.20769 15.1546 4.56499 15.502C4.92228 15.8494 5.56365 15.7933 5.99753 15.3769L6.89739 14.513L5.6523 20.9848C2.83752 18.9925 1 15.7109 1 12C1 5.92487 5.92487 1 12 1Z"
    fill="currentColor" />
</svg>