<svg width="24" height="24" viewBox="0 0 24 24" fill="none" xmlns="http://www.w3.org/2000/svg">
  <path fill-rule="evenodd" clip-rule="evenodd"
    d="M6 2H18C20.2091 2 22 3.79086 22 6V12.3543C20.7419 11.6416 18.9837 11.1547 17 11.031V14.0001C17 14.5523 16.5523 15.0001 16 15.0001C15.4477 15.0001 15 14.5523 15 14.0001V11.031C11.0537 11.2771 8 12.9603 8 15.0001C8 17.2092 11.5817 19.0001 16 19.0001C18.3894 19.0001 20.5341 18.4763 22 17.6459V18C22 18.7424 21.7978 19.4375 21.4454 20.0333C19.8786 20.6448 18.0084 21 16 21C12.9217 21 10.1682 20.1655 8.33384 18.8529C8.11666 19.2163 8 19.6014 8 20C8 20.7286 8.38956 21.4117 9.07022 22H6C3.79086 22 2 20.2091 2 18V6C2 3.79086 3.79086 2 6 2ZM12.8753 7.71911L15.3598 5.7315L15.3753 5.71911C15.437 5.66973 15.5028 5.62884 15.5712 5.59631C15.845 5.46615 16.161 5.4695 16.4288 5.59631C16.5037 5.63178 16.5748 5.67692 16.6402 5.73149L19.1247 7.71911C19.556 8.06412 19.6259 8.69341 19.2809 9.12467C18.9359 9.55593 18.3066 9.62585 17.8753 9.28084L17 8.5806V11.0309C16.6724 11.0105 16.3387 11 16 11C15.6613 11 15.3276 11.0105 15 11.0309V8.5806L14.1247 9.28084C13.6934 9.62585 13.0641 9.55593 12.7191 9.12467C12.3741 8.69341 12.444 8.06412 12.8753 7.71911Z"
    fill="currentColor" />
</svg>