<svg width="24" height="24" viewBox="0 0 24 24" fill="none" xmlns="http://www.w3.org/2000/svg">
  <path
    d="M6.5 5.5C5.39543 5.5 4.5 6.39543 4.5 7.5V17.5C4.5 18.6046 5.39543 19.5 6.5 19.5H17.5C18.6046 19.5 19.5 18.6046 19.5 17.5V16.5H15.5C13.2909 16.5 11.5 14.7091 11.5 12.5C11.5 10.2909 13.2909 8.5 15.5 8.5H19.5V7.5C19.5 6.39543 18.6046 5.5 17.5 5.5H6.5Z"
    fill="currentColor" />
  <path d="M13.5 12.5C13.5 11.3954 14.3954 10.5 15.5 10.5H20.5V14.5H15.5C14.3954 14.5 13.5 13.6046 13.5 12.5Z"
    fill="currentColor" />
</svg>