<svg width="24" height="24" viewBox="0 0 24 24" fill="none" xmlns="http://www.w3.org/2000/svg">
  <path d="M7.52734 5.00001H17.4334L15.9569 2.44259C15.4046 1.48601 14.1815 1.15826 13.2249 1.71054L7.52734 5.00001Z"
    fill="currentColor" />
  <path
    d="M4 7C2.89543 7 2 7.89543 2 9V21C2 22.1046 2.89543 23 4 23H20C21.1046 23 22 22.1046 22 21V19.5H16.5C14.0147 19.5 12 17.4853 12 15C12 12.5147 14.0147 10.5 16.5 10.5H22V9C22 7.89543 21.1046 7 20 7H4Z"
    fill="currentColor" />
  <path
    d="M16.5 12.5C15.1193 12.5 14 13.6193 14 15C14 16.3807 15.1193 17.5 16.5 17.5H22C22.5523 17.5 23 17.0523 23 16.5V13.5C23 12.9477 22.5523 12.5 22 12.5H16.5Z"
    fill="currentColor" />
</svg>