<svg width="19" height="19" viewBox="0 0 19 19" fill="none" xmlns="http://www.w3.org/2000/svg">
  <rect x="0.158333" y="0.158333" width="18.6833" height="18.6833" rx="9.34167" fill="black" stroke="#7B7B7B"
    stroke-width="0.316667" />
  <path fill-rule="evenodd" clip-rule="evenodd"
    d="M9.51855 13.8279C8.87523 14.1456 8.15085 14.3242 7.38477 14.3242C4.72042 14.3242 2.56055 12.1643 2.56055 9.5C2.56055 6.83566 4.72042 4.67578 7.38477 4.67578C8.15085 4.67578 8.87523 4.85435 9.51855 5.17214C10.1619 4.85435 10.8863 4.67578 11.6523 4.67578C14.3167 4.67578 16.4766 6.83566 16.4766 9.5C16.4766 12.1643 14.3167 14.3242 11.6523 14.3242C10.8863 14.3242 10.1619 14.1456 9.51855 13.8279ZM11.7525 11.5511C11.762 11.5309 11.7713 11.5107 11.7805 11.4904L13.8789 9.5L12.209 9.5C12.209 7.99117 11.5163 6.64412 10.4316 5.7595C10.8159 5.63417 11.2262 5.56641 11.6523 5.56641C13.8248 5.56641 15.5859 7.32754 15.5859 9.5C15.5859 11.6725 13.8248 13.4336 11.6523 13.4336C11.4424 13.4336 11.2363 13.4171 11.0352 13.3855C11.0322 13.385 11.0293 13.3845 11.0263 13.384C10.8224 13.3514 10.6238 13.3032 10.4316 13.2405C10.0994 13.1322 9.78672 12.9808 9.5 12.793C8.42733 12.0905 7.71875 10.878 7.71875 9.5L9.48144 9.5L7.26944 7.46217L5.12109 9.5L6.82812 9.5C6.82812 11.0039 7.51626 12.347 8.59483 13.2318C8.20294 13.3627 7.78358 13.4336 7.34766 13.4336C5.17519 13.4336 3.41406 11.6725 3.41406 9.5C3.41406 7.32754 5.17519 5.56641 7.34766 5.56641C7.78358 5.56641 8.20294 5.63732 8.59484 5.76823C8.91716 5.8759 9.2209 6.02417 9.5 6.20696C9.63632 6.29625 9.76677 6.39376 9.89062 6.49881C10.7413 7.22035 11.2812 8.29712 11.2812 9.5L9.5 9.50001L11.7525 11.5511Z"
    fill="url(#paint0_linear_2116_7189)" />
  <defs>
    <linearGradient id="paint0_linear_2116_7189" x1="2.56055" y1="4.67578" x2="16.4766" y2="14.3242"
      gradientUnits="userSpaceOnUse">
      <stop offset="0.0001" stop-color="#FFB571" />
      <stop offset="1" stop-color="#FF71C6" />
    </linearGradient>
  </defs>
</svg>