<svg width="21" height="21" viewBox="0 0 21 21" fill="none" xmlns="http://www.w3.org/2000/svg">
  <rect x="0.75" y="0.75" width="19.5" height="19.5" rx="9.75" fill="black" />
  <path fill-rule="evenodd" clip-rule="evenodd"
    d="M11.331 13.9419C11.854 13.5154 12.2769 12.9709 12.559 12.3489L14.4692 10.537L12.9491 10.537C12.9491 9.16354 12.3185 7.93736 11.3311 7.13216C11.6807 7.01818 12.0541 6.95656 12.4417 6.95656C14.4192 6.95656 16.0222 8.5596 16.0222 10.537C16.0222 12.5145 14.4192 14.1175 12.4417 14.1175C12.054 14.1175 11.6807 14.0559 11.331 13.9419ZM10.4999 14.4765C9.9144 14.7657 9.25513 14.9282 8.55791 14.9282C6.13274 14.9282 4.16675 12.9622 4.16675 10.537C4.16675 8.11184 6.13274 6.14584 8.55791 6.14584C9.25515 6.14584 9.91443 6.30834 10.5 6.59754C11.0855 6.30836 11.7447 6.14586 12.4419 6.14586C14.8671 6.14586 16.8331 8.11186 16.8331 10.537C16.8331 12.9622 14.8671 14.9282 12.4419 14.9282C11.7447 14.9282 11.0854 14.7657 10.4999 14.4765ZM9.65903 13.9339C9.30241 14.053 8.9208 14.1175 8.52413 14.1175C6.54668 14.1175 4.94364 12.5145 4.94364 10.537C4.94364 8.55958 6.54668 6.95654 8.52413 6.95654C8.92081 6.95654 9.30241 7.02104 9.65904 7.14014C9.15229 7.55578 8.74022 8.08258 8.46008 8.6833L8.45564 8.67922L6.49708 10.537H8.05078V10.537C8.05078 11.906 8.6772 13.1286 9.65903 13.9339ZM10.4829 13.5347C9.50637 12.8952 8.86126 11.7915 8.86126 10.537V10.537H10.4829L9.09408 9.26429C9.36464 8.55305 9.85535 7.95033 10.483 7.53939C11.4595 8.17882 12.1046 9.28257 12.1046 10.537L10.4833 10.537L11.8719 11.8095C11.6014 12.5209 11.1106 13.1237 10.4829 13.5347Z"
    fill="url(#paint0_linear_1641_13215)" />
  <rect x="0.75" y="0.75" width="19.5" height="19.5" rx="9.75" stroke="#7B7B7B" stroke-width="0.5" />
  <defs>
    <linearGradient id="paint0_linear_1641_13215" x1="4.16675" y1="6.14584" x2="16.8334" y2="14.9277"
      gradientUnits="userSpaceOnUse">
      <stop offset="0.0001" stop-color="#FFB571" />
      <stop offset="1" stop-color="#FF71C6" />
    </linearGradient>
  </defs>
</svg>