<svg width="73" height="73" viewBox="0 0 73 73" fill="none" xmlns="http://www.w3.org/2000/svg">
  <path fill-rule="evenodd" clip-rule="evenodd"
    d="M73 36.5C73 38.3003 72.8697 40.0701 72.6179 41.8006C70.16 42.5767 67.5119 43 64.75 43C59.6783 43 54.9907 41.5728 51.1587 39.1544L50.7978 38.9266C50.9308 38.1376 51 37.3269 51 36.5C51 28.4919 44.5081 22 36.5 22C28.4919 22 22 28.4919 22 36.5C22 37.3269 22.0692 38.1376 22.2022 38.9266L21.8413 39.1544C18.0093 41.5728 13.3217 43 8.25 43C5.48807 43 2.84005 42.5768 0.382093 41.8006C0.130338 40.0702 0 38.3003 0 36.5C0 16.3416 16.3416 0 36.5 0C56.6584 0 73 16.3416 73 36.5Z"
    fill="#38EDFF" />
  <path fill-rule="evenodd" clip-rule="evenodd"
    d="M72.6179 41.8006C70.1599 42.5767 67.5119 43 64.75 43C59.6783 43 54.9907 41.5727 51.1587 39.1543L50.625 38.8175L50.0913 39.1543C46.2593 41.5727 41.5717 43 36.5 43C31.4283 43 26.7407 41.5727 22.9087 39.1543L22.375 38.8175L21.8413 39.1543C18.0093 41.5727 13.3217 43 8.24999 43C5.48806 43 2.84004 42.5767 0.38208 41.8006C0.807017 44.7215 1.57787 47.5303 2.65174 50.184C5.57961 51.3499 8.82733 51.9999 12.25 51.9999V52C17.3217 52 22.0093 50.5727 25.8413 48.1543L26.375 47.8175L26.9087 48.1543C30.7407 50.5727 35.4283 52 40.5 52V54C35.2835 54 30.4244 52.5941 26.375 50.1735C22.3256 52.5941 17.4665 54 12.25 54V53.9999C9.28638 53.9999 6.43813 53.5462 3.78817 52.7104C5.58868 56.3367 7.97445 59.6212 10.8219 62.4401C12.5634 62.806 14.3806 62.9999 16.25 62.9999V63C21.3217 63 26.0093 61.5727 29.8413 59.1543L30.375 58.8175L30.9087 59.1543C34.7407 61.5727 39.4283 63 44.5 63V65C39.2835 65 34.4244 63.5941 30.375 61.1735C26.3256 63.5941 21.4665 65 16.25 65V64.9999C15.3332 64.9999 14.4275 64.9565 13.5353 64.8718C19.8072 69.9547 27.798 73 36.5 73C46.3295 73 55.2515 69.1145 61.8139 62.7956C60.7048 62.3227 59.6395 61.7799 58.625 61.1735C54.5756 63.5941 49.7165 65 44.5 65V63C49.5717 63 54.2593 61.5727 58.0913 59.1543L58.625 58.8175L59.1587 59.1543C60.4556 59.9728 61.8505 60.6778 63.3251 61.2523C65.3442 59.0652 67.0992 56.6306 68.5395 53.9992C63.4028 53.9619 58.6199 52.5615 54.625 50.1735C50.5756 52.5941 45.7165 54 40.5 54V52C45.5717 52 50.2593 50.5727 54.0913 48.1543L54.625 47.8175L55.1587 48.1543C58.9907 50.5727 63.6783 52 68.75 52C69.0213 52 69.2916 51.9959 69.5607 51.9878C71.0497 48.8148 72.0953 45.3925 72.6179 41.8006Z"
    fill="url(#lake_logo_linear)" />
  <defs>
    <linearGradient id="lake_logo_linear" x1="36.5" y1="24" x2="36.5" y2="77" gradientUnits="userSpaceOnUse">
      <stop stop-color="#00B2FF" />
      <stop offset="1" stop-color="#38EDFF" />
    </linearGradient>
  </defs>
</svg>