<svg width="266" height="114" viewBox="0 0 266 114" fill="none" xmlns="http://www.w3.org/2000/svg">
  <path
    d="M94.546 89H106.672V20.38H94.546V89ZM151.491 42V47.546C148.107 43.316 143.031 40.684 136.169 40.684C123.667 40.684 113.327 51.494 113.327 65.5C113.327 79.506 123.667 90.316 136.169 90.316C143.031 90.316 148.107 87.684 151.491 83.454V89H163.617V42H151.491ZM138.425 78.754C130.999 78.754 125.453 73.396 125.453 65.5C125.453 57.604 130.999 52.246 138.425 52.246C145.945 52.246 151.491 57.604 151.491 65.5C151.491 73.396 145.945 78.754 138.425 78.754ZM215.946 89L196.488 65.218L215.382 42H200.906L184.738 62.68V23.2H172.612V89H184.738V67.662L201.846 89H215.946ZM226.849 70.482H262.287C262.569 68.884 262.757 67.286 262.757 65.5C262.757 51.682 252.887 40.684 238.975 40.684C224.217 40.684 214.159 51.494 214.159 65.5C214.159 79.506 224.123 90.316 239.915 90.316C248.939 90.316 255.989 86.65 260.407 80.258L250.631 74.618C248.563 77.344 244.803 79.318 240.103 79.318C233.711 79.318 228.541 76.686 226.849 70.482ZM226.661 61.082C228.071 55.066 232.489 51.588 238.975 51.588C244.051 51.588 249.127 54.314 250.631 61.082H226.661Z"
    fill="currentColor" />
  <path fill-rule="evenodd" clip-rule="evenodd"
    d="M73 52.5C73 54.3003 72.8697 56.0701 72.6179 57.8006C70.16 58.5767 67.5119 59 64.75 59C59.6783 59 54.9907 57.5728 51.1587 55.1544L50.7978 54.9266C50.9308 54.1376 51 53.3269 51 52.5C51 44.4919 44.5081 38 36.5 38C28.4919 38 22 44.4919 22 52.5C22 53.3269 22.0692 54.1376 22.2022 54.9266L21.8413 55.1544C18.0093 57.5728 13.3217 59 8.25 59C5.48807 59 2.84005 58.5768 0.382093 57.8006C0.130338 56.0702 0 54.3003 0 52.5C0 32.3416 16.3416 16 36.5 16C56.6584 16 73 32.3416 73 52.5Z"
    fill="#38EDFF" />
  <path fill-rule="evenodd" clip-rule="evenodd"
    d="M72.6179 57.8006C70.1599 58.5767 67.5119 59 64.75 59C59.6783 59 54.9907 57.5727 51.1587 55.1543L50.625 54.8175L50.0913 55.1543C46.2593 57.5727 41.5717 59 36.5 59C31.4283 59 26.7407 57.5727 22.9087 55.1543L22.375 54.8175L21.8413 55.1543C18.0093 57.5727 13.3217 59 8.24999 59C5.48806 59 2.84004 58.5767 0.38208 57.8006C0.807017 60.7215 1.57787 63.5303 2.65174 66.184C5.57961 67.3499 8.82733 67.9999 12.25 67.9999V68C17.3217 68 22.0093 66.5727 25.8413 64.1543L26.375 63.8175L26.9087 64.1543C30.7407 66.5727 35.4283 68 40.5 68V70C35.2835 70 30.4244 68.5941 26.375 66.1735C22.3256 68.5941 17.4665 70 12.25 70V69.9999C9.28638 69.9999 6.43813 69.5462 3.78817 68.7104C5.58868 72.3367 7.97445 75.6212 10.8219 78.4401C12.5634 78.806 14.3806 78.9999 16.25 78.9999V79C21.3217 79 26.0093 77.5727 29.8413 75.1543L30.375 74.8175L30.9087 75.1543C34.7407 77.5727 39.4283 79 44.5 79V81C39.2835 81 34.4244 79.5941 30.375 77.1735C26.3256 79.5941 21.4665 81 16.25 81V80.9999C15.3332 80.9999 14.4275 80.9565 13.5353 80.8718C19.8072 85.9547 27.798 89 36.5 89C46.3295 89 55.2515 85.1145 61.8139 78.7956C60.7048 78.3227 59.6395 77.7799 58.625 77.1735C54.5756 79.5941 49.7165 81 44.5 81V79C49.5717 79 54.2593 77.5727 58.0913 75.1543L58.625 74.8175L59.1587 75.1543C60.4556 75.9728 61.8505 76.6778 63.3251 77.2523C65.3442 75.0652 67.0992 72.6306 68.5395 69.9992C63.4028 69.9619 58.6199 68.5615 54.625 66.1735C50.5756 68.5941 45.7165 70 40.5 70V68C45.5717 68 50.2593 66.5727 54.0913 64.1543L54.625 63.8175L55.1587 64.1543C58.9907 66.5727 63.6783 68 68.75 68C69.0213 68 69.2916 67.9959 69.5607 67.9878C71.0497 64.8148 72.0953 61.3925 72.6179 57.8006Z"
    fill="url(#lake_brand_linear)" />
  <defs>
    <linearGradient id="lake_brand_linear" x1="36.5" y1="40" x2="36.5" y2="93" gradientUnits="userSpaceOnUse">
      <stop stop-color="#00B2FF" />
      <stop offset="1" stop-color="#38EDFF" />
    </linearGradient>
  </defs>
</svg>