<svg width="272" height="114" viewBox="0 0 272 114" fill="none" xmlns="http://www.w3.org/2000/svg">
  <path
    d="M108.082 76.592V23.2H95.11V89H133.18V76.592H108.082ZM147.313 70.482H182.751C183.033 68.884 183.221 67.286 183.221 65.5C183.221 51.682 173.351 40.684 159.439 40.684C144.681 40.684 134.623 51.494 134.623 65.5C134.623 79.506 144.587 90.316 160.379 90.316C169.403 90.316 176.453 86.65 180.871 80.258L171.095 74.618C169.027 77.344 165.267 79.318 160.567 79.318C154.175 79.318 149.005 76.686 147.313 70.482ZM147.125 61.082C148.535 55.066 152.953 51.588 159.439 51.588C164.515 51.588 169.591 54.314 171.095 61.082H147.125ZM225.039 42V47.546C221.655 43.316 216.579 40.684 209.717 40.684C197.215 40.684 186.875 51.494 186.875 65.5C186.875 79.506 197.215 90.316 209.717 90.316C216.579 90.316 221.655 87.684 225.039 83.454V89H237.165V42H225.039ZM211.973 78.754C204.547 78.754 199.001 73.396 199.001 65.5C199.001 57.604 204.547 52.246 211.973 52.246C219.493 52.246 225.039 57.604 225.039 65.5C225.039 73.396 219.493 78.754 211.973 78.754ZM271.447 33.54V21.884C256.501 20.944 249.357 28.558 249.357 41.53V42H242.589V53.656H249.357V89H261.483V53.656H271.447V42H261.483V41.53C261.483 35.138 265.149 33.07 271.447 33.54Z"
    fill="currentColor" />
  <path fill-rule="evenodd" clip-rule="evenodd"
    d="M36.5 39.6938C29.7424 52.8617 16.0685 61.8955 0.274539 61.9991C0.0933146 60.5248 0 59.0233 0 57.5C0 38.8649 13.9652 23.4915 32.0009 21.2745C33.4752 21.0933 34.9767 21 36.5 21C38.0233 21 39.5248 21.0933 40.9991 21.2745C40.9991 21.2745 40.9991 21.2745 40.9991 21.2745C59.0348 23.4916 73 38.8649 73 57.5C73 59.0233 72.9066 60.5248 72.7254 61.9991C56.9315 61.8955 43.2576 52.8617 36.5 39.6938Z"
    fill="#9FF219" />
  <path fill-rule="evenodd" clip-rule="evenodd"
    d="M35.3484 73.2147C32.0272 79.218 30.1001 86.0999 30.0038 93.4236C12.9446 90.3592 0 75.4413 0 57.5C0 55.9767 0.0933146 54.4752 0.274539 53.0009C15.2176 53.0989 28.2629 61.1909 35.3484 73.2147Z"
    fill="url(#leaf_linear_0)" />
  <path fill-rule="evenodd" clip-rule="evenodd"
    d="M36.5 94C56.6584 94 73 77.6584 73 57.5C73 55.9767 72.9067 54.4752 72.7255 53.0009C50.2996 53.148 32.148 71.2996 32.001 93.7254C33.4753 93.9067 34.9767 94 36.5 94Z"
    fill="url(#leaf_linear_1)" />
  <defs>
    <linearGradient id="leaf_linear_0" x1="17.6742" y1="52.9384" x2="17.6742" y2="108.746"
      gradientUnits="userSpaceOnUse">
      <stop stop-color="#77E807" />
      <stop offset="1" stop-color="#9FF219" />
    </linearGradient>
    <linearGradient id="leaf_linear_1" x1="52.5005" y1="52.9375" x2="52.5005" y2="109.541"
      gradientUnits="userSpaceOnUse">
      <stop stop-color="#77E807" />
      <stop offset="1" stop-color="#9FF219" />
    </linearGradient>
  </defs>
</svg>