<svg width="251" height="114" viewBox="0 0 251 114" fill="none" xmlns="http://www.w3.org/2000/svg">
  <path
    d="M94.546 89H106.672V20.38H94.546V89ZM126.017 70.482H161.455C161.737 68.884 161.925 67.286 161.925 65.5C161.925 51.682 152.055 40.684 138.143 40.684C123.385 40.684 113.327 51.494 113.327 65.5C113.327 79.506 123.291 90.316 139.083 90.316C148.107 90.316 155.157 86.65 159.575 80.258L149.799 74.618C147.731 77.344 143.971 79.318 139.271 79.318C132.879 79.318 127.709 76.686 126.017 70.482ZM125.829 61.082C127.239 55.066 131.657 51.588 138.143 51.588C143.219 51.588 148.295 54.314 149.799 61.082H125.829ZM203.743 42V47.546C200.359 43.316 195.283 40.684 188.421 40.684C175.919 40.684 165.579 51.494 165.579 65.5C165.579 79.506 175.919 90.316 188.421 90.316C195.283 90.316 200.359 87.684 203.743 83.454V89H215.869V42H203.743ZM190.677 78.754C183.251 78.754 177.705 73.396 177.705 65.5C177.705 57.604 183.251 52.246 190.677 52.246C198.197 52.246 203.743 57.604 203.743 65.5C203.743 73.396 198.197 78.754 190.677 78.754ZM250.15 33.54V21.884C235.204 20.944 228.06 28.558 228.06 41.53V42H221.292V53.656H228.06V89H240.186V53.656H250.15V42H240.186V41.53C240.186 35.138 243.852 33.07 250.15 33.54Z"
    fill="currentColor" />
  <path fill-rule="evenodd" clip-rule="evenodd"
    d="M36.5 35.6938C29.7424 48.8617 16.0685 57.8955 0.274539 57.9991C0.0933146 56.5248 0 55.0233 0 53.5C0 34.8649 13.9652 19.4915 32.0009 17.2745C33.4752 17.0933 34.9767 17 36.5 17C38.0233 17 39.5248 17.0933 40.9991 17.2745C40.9991 17.2745 40.9991 17.2745 40.9991 17.2745C59.0348 19.4916 73 34.8649 73 53.5C73 55.0233 72.9066 56.5248 72.7254 57.9991C56.9315 57.8955 43.2576 48.8617 36.5 35.6938Z"
    fill="#9FF219" />
  <path fill-rule="evenodd" clip-rule="evenodd"
    d="M35.3484 69.2147C32.0272 75.218 30.1001 82.0999 30.0038 89.4236C12.9446 86.3591 0 71.4412 0 53.4999C0 51.9767 0.0933146 50.4752 0.274539 49.0009C15.2176 49.0988 28.2629 57.1908 35.3484 69.2147Z"
    fill="url(#leaf_brand_linear_1)" />
  <path fill-rule="evenodd" clip-rule="evenodd"
    d="M36.5 89.9999C56.6584 89.9999 73 73.6583 73 53.4999C73 51.9767 72.9067 50.4752 72.7255 49.0009C50.2996 49.1479 32.148 67.2995 32.001 89.7254C33.4753 89.9066 34.9767 89.9999 36.5 89.9999Z"
    fill="url(#leaf_brand_linear_2)" />
  <defs>
    <linearGradient id="leaf_brand_linear_1" x1="17.6742" y1="48.9384" x2="17.6742" y2="104.746"
      gradientUnits="userSpaceOnUse">
      <stop stop-color="#77E807" />
      <stop offset="1" stop-color="#9FF219" />
    </linearGradient>
    <linearGradient id="leaf_brand_linear_2" x1="52.5005" y1="48.9375" x2="52.5005" y2="105.541"
      gradientUnits="userSpaceOnUse">
      <stop stop-color="#77E807" />
      <stop offset="1" stop-color="#9FF219" />
    </linearGradient>
  </defs>
</svg>