<svg width="319" height="114" viewBox="0 0 319 114" fill="none" xmlns="http://www.w3.org/2000/svg">
  <path
    d="M131.206 89H145.212L130.642 64.184C138.162 60.706 143.332 53.28 143.332 45.008C143.332 32.976 133.556 23.2 121.43 23.2H95.11V89H108.082V66.158H117.952L131.206 89ZM108.082 35.326H121.43C126.318 35.326 130.36 39.556 130.36 45.008C130.36 50.46 126.318 54.784 121.43 54.784H108.082V35.326ZM156.302 36.36C160.438 36.36 163.822 32.976 163.822 28.934C163.822 24.892 160.438 21.414 156.302 21.414C152.26 21.414 148.876 24.892 148.876 28.934C148.876 32.976 152.26 36.36 156.302 36.36ZM150.286 89H162.412V42H150.286V89ZM197.643 40.684C191.345 40.684 186.457 43.034 183.637 47.264V42H171.511V89H183.637V63.62C183.637 55.442 188.055 51.964 193.977 51.964C199.429 51.964 203.283 55.254 203.283 61.646V89H215.409V60.142C215.409 47.64 207.607 40.684 197.643 40.684ZM259.765 42V47.828C256.475 43.41 251.399 40.684 244.725 40.684C231.377 40.684 221.319 51.588 221.319 64.748C221.319 78.002 231.377 88.812 244.725 88.812C251.399 88.812 256.475 86.086 259.765 81.668V86.744C259.765 94.17 255.065 98.306 247.451 98.306C240.213 98.306 237.111 95.392 235.137 91.726L224.797 97.648C228.933 105.262 237.017 109.116 247.075 109.116C259.483 109.116 271.609 102.16 271.609 86.744V42H259.765ZM246.605 77.626C238.991 77.626 233.445 72.268 233.445 64.748C233.445 57.322 238.991 51.964 246.605 51.964C254.219 51.964 259.765 57.322 259.765 64.748C259.765 72.268 254.219 77.626 246.605 77.626ZM291.423 55.348C291.423 52.81 293.867 51.494 296.875 51.494C300.353 51.494 302.985 53.28 304.395 56.288L314.735 50.648C311.069 44.162 304.489 40.684 296.875 40.684C287.193 40.684 279.015 46.042 279.015 55.63C279.015 72.174 303.267 68.414 303.267 75.276C303.267 78.002 300.635 79.318 296.781 79.318C292.081 79.318 288.885 77.062 287.569 73.208L277.041 79.13C280.425 86.368 287.381 90.316 296.781 90.316C306.839 90.316 315.675 85.428 315.675 75.276C315.675 57.98 291.423 62.304 291.423 55.348Z"
    fill="currentColor" />
  <path fill-rule="evenodd" clip-rule="evenodd"
    d="M15.6002 82.4315C13.1934 73.1237 15.3674 62.6711 23.1769 54.9417L37.8196 40.4486C45.7438 32.6074 56.4952 30.5077 65.9982 33.0541C66.5761 33.2089 67.1495 33.381 67.7174 33.57C66.2292 31.1202 64.4265 28.8077 62.3094 26.6906C48.0553 12.4365 24.9447 12.4365 10.6906 26.6906C-3.56353 40.9447 -3.56353 64.0553 10.6906 78.3094C12.2311 79.8499 13.8751 81.224 15.6002 82.4315Z"
    fill="#FFE600" />
  <path fill-rule="evenodd" clip-rule="evenodd"
    d="M72.2072 44.9135C71.3715 40.9616 69.8748 37.1215 67.7174 33.57C67.1495 33.381 66.5762 33.2089 65.9982 33.0541C56.4952 30.5078 45.7438 32.6075 37.8196 40.4487L23.1769 54.9418C15.3674 62.6712 13.1934 73.1237 15.6002 82.4315C19.3519 85.0577 23.4872 86.8964 27.776 87.9476C26.2308 85.9445 25.0318 83.6988 24.277 81.1822C21.5553 72.1071 24.995 62.657 31.1413 56.0527C32.1795 54.937 33.5379 53.5389 34.8992 52.1634C36.2626 50.7857 37.6401 49.4195 38.7215 48.3642C45.2258 42.0167 54.6807 38.2247 63.9473 40.7077C67.0469 41.5382 69.7983 42.9879 72.2072 44.9135ZM72.729 48.0472C70.107 45.4761 67.005 43.5976 63.4297 42.6396C55.0209 40.3864 46.2632 43.7989 40.1183 49.7956C39.0456 50.8424 37.6763 52.2004 36.3207 53.5702C34.9651 54.94 33.6232 56.3215 32.6054 57.4152C26.81 63.6425 23.7254 72.3808 26.1927 80.6077C27.1061 83.6529 28.7563 86.2937 30.9673 88.5807C35.5358 89.2775 40.2111 89.1059 44.7269 88.0658C40.559 85.9277 37.2215 82.8767 35.7385 78.7257L35.7384 78.7253C34.0139 73.8923 34.3519 68.3054 37.5915 63.67C37.7049 63.358 37.8856 63.0388 38.0737 62.7449C38.3131 62.3708 38.6179 61.957 38.9596 61.5265C39.6439 60.6644 40.5151 59.6866 41.4042 58.745C43.1541 56.8916 45.0906 55.0545 45.8783 54.5067L45.8786 54.5065C50.4581 51.3197 55.8292 49.8417 61.1167 51.2585C65.994 52.5653 69.7014 56.0408 72.1094 60.5353C73.0306 56.4345 73.2372 52.2055 72.729 48.0472ZM66.4933 73.3113C68.5972 70.2866 70.1909 67.0147 71.2743 63.6154C71.1133 63.1212 70.9761 62.7469 70.8795 62.5415L70.8793 62.5412C68.6885 57.8782 65.1779 54.4172 60.5991 53.1903C56.0202 51.9634 51.2495 53.2055 47.0207 56.1483L47.0204 56.1485C46.427 56.5611 44.6223 58.2498 42.8584 60.118C41.9904 61.0373 41.1615 61.9694 40.5261 62.7699C40.2079 63.1708 39.948 63.5265 39.7582 63.823C39.556 64.139 39.4785 64.3192 39.4611 64.3838L39.4142 64.5574L39.3099 64.7038C36.4142 68.7645 36.0724 73.7103 37.6221 78.0532C38.9312 81.7172 41.9982 84.5204 46.1325 86.5325L45.6949 87.4317L46.1318 86.5321C46.1287 86.5306 46.1289 86.5307 46.1335 86.5326C46.1433 86.5366 46.173 86.5488 46.2317 86.5705C46.3073 86.5984 46.4082 86.6338 46.5337 86.6763C46.7841 86.7611 47.115 86.8683 47.5031 86.9911C47.6616 87.0413 47.829 87.0938 48.0035 87.1482C51.6041 85.956 55.0557 84.1879 58.2147 81.8442C56.5331 82.2225 54.7344 82.2101 52.9514 81.7323C50.0402 80.9523 47.7131 79.077 46.3081 76.6768C44.903 74.2763 44.4168 71.3445 45.1905 68.4571C45.9642 65.5698 47.8511 63.2738 50.2682 61.8975C52.6851 60.5214 55.638 60.0608 58.5493 60.8409C61.4605 61.621 63.7876 63.4963 65.1925 65.8965C66.4672 68.074 66.9856 70.689 66.4933 73.3113ZM51.2579 63.6355C53.2332 62.5107 55.6461 62.1336 58.0316 62.7728C60.4171 63.412 62.3182 64.945 63.4665 66.9068C64.6147 68.8683 65.007 71.2521 64.3783 73.5985C63.7496 75.9449 62.2179 77.8131 60.2428 78.9377C58.2674 80.0625 55.8546 80.4397 53.4691 79.8005C51.0835 79.1613 49.1825 77.6282 48.0342 75.6664C46.886 73.7049 46.4936 71.3212 47.1224 68.9748C47.7511 66.6283 49.2827 64.7601 51.2579 63.6355Z"
    fill="url(#rings_brand_linear)" />
  <defs>
    <linearGradient id="rings_brand_linear" x1="55.8812" y1="31.5" x2="55.8812" y2="99" gradientUnits="userSpaceOnUse">
      <stop stop-color="#F9B300" />
      <stop offset="1" stop-color="#FFE500" />
    </linearGradient>
  </defs>
</svg>