<svg width="319" height="114" viewBox="0 0 319 114" fill="none" xmlns="http://www.w3.org/2000/svg">
  <path
    d="M131.206 89H145.212L130.642 64.184C138.162 60.706 143.332 53.28 143.332 45.008C143.332 32.976 133.556 23.2 121.43 23.2H95.11V89H108.082V66.158H117.952L131.206 89ZM108.082 35.326H121.43C126.318 35.326 130.36 39.556 130.36 45.008C130.36 50.46 126.318 54.784 121.43 54.784H108.082V35.326ZM156.302 36.36C160.438 36.36 163.822 32.976 163.822 28.934C163.822 24.892 160.438 21.414 156.302 21.414C152.26 21.414 148.876 24.892 148.876 28.934C148.876 32.976 152.26 36.36 156.302 36.36ZM150.286 89H162.412V42H150.286V89ZM197.643 40.684C191.345 40.684 186.457 43.034 183.637 47.264V42H171.511V89H183.637V63.62C183.637 55.442 188.055 51.964 193.977 51.964C199.429 51.964 203.283 55.254 203.283 61.646V89H215.409V60.142C215.409 47.64 207.607 40.684 197.643 40.684ZM259.765 42V47.828C256.475 43.41 251.399 40.684 244.725 40.684C231.377 40.684 221.319 51.588 221.319 64.748C221.319 78.002 231.377 88.812 244.725 88.812C251.399 88.812 256.475 86.086 259.765 81.668V86.744C259.765 94.17 255.065 98.306 247.451 98.306C240.213 98.306 237.111 95.392 235.137 91.726L224.797 97.648C228.933 105.262 237.017 109.116 247.075 109.116C259.483 109.116 271.609 102.16 271.609 86.744V42H259.765ZM246.605 77.626C238.991 77.626 233.445 72.268 233.445 64.748C233.445 57.322 238.991 51.964 246.605 51.964C254.219 51.964 259.765 57.322 259.765 64.748C259.765 72.268 254.219 77.626 246.605 77.626ZM291.423 55.348C291.423 52.81 293.867 51.494 296.875 51.494C300.353 51.494 302.985 53.28 304.395 56.288L314.735 50.648C311.069 44.162 304.489 40.684 296.875 40.684C287.193 40.684 279.015 46.042 279.015 55.63C279.015 72.174 303.267 68.414 303.267 75.276C303.267 78.002 300.635 79.318 296.781 79.318C292.081 79.318 288.885 77.062 287.569 73.208L277.041 79.13C280.425 86.368 287.381 90.316 296.781 90.316C306.839 90.316 315.675 85.428 315.675 75.276C315.675 57.98 291.423 62.304 291.423 55.348Z"
    fill="currentColor" />
  <path fill-rule="evenodd" clip-rule="evenodd"
    d="M15.6002 86.4315C13.1934 77.1237 15.3674 66.6711 23.1769 58.9417L37.8196 44.4486C45.7438 36.6074 56.4952 34.5077 65.9982 37.0541C66.5761 37.2089 67.1495 37.381 67.7174 37.57C66.2292 35.1202 64.4265 32.8077 62.3094 30.6906C48.0553 16.4365 24.9447 16.4365 10.6906 30.6906C-3.56353 44.9447 -3.56353 68.0553 10.6906 82.3094C12.2311 83.8499 13.8751 85.224 15.6002 86.4315Z"
    fill="#FFE600" />
  <path fill-rule="evenodd" clip-rule="evenodd"
    d="M72.2072 48.9135C71.3714 44.9616 69.8748 41.1215 67.7174 37.57C67.1495 37.381 66.5761 37.2089 65.9982 37.0541C56.4951 34.5078 45.7438 36.6075 37.8196 44.4487L23.1769 58.9418C15.3674 66.6712 13.1934 77.1237 15.6002 86.4315C19.3519 89.0577 23.4872 90.8964 27.776 91.9476C26.2308 89.9445 25.0318 87.6988 24.277 85.1822C21.5553 76.1071 24.995 66.657 31.1413 60.0527C32.1795 58.937 33.5379 57.5389 34.8991 56.1634C36.2626 54.7857 37.6401 53.4195 38.7214 52.3642C45.2258 46.0167 54.6807 42.2247 63.9473 44.7077C67.0469 45.5382 69.7983 46.9879 72.2072 48.9135ZM72.729 52.0472C70.107 49.4761 67.005 47.5976 63.4297 46.6396C55.0209 44.3864 46.2632 47.7989 40.1183 53.7956C39.0456 54.8424 37.6763 56.2004 36.3207 57.5702C34.9651 58.94 33.6232 60.3215 32.6053 61.4152C26.81 67.6425 23.7254 76.3808 26.1927 84.6077C27.1061 87.6529 28.7563 90.2937 30.9673 92.5807C35.5358 93.2775 40.2111 93.1059 44.7269 92.0658C40.5589 89.9277 37.2215 86.8767 35.7385 82.7257L35.7384 82.7253C34.0139 77.8923 34.3519 72.3054 37.5915 67.67C37.7049 67.358 37.8856 67.0388 38.0737 66.7449C38.3131 66.3708 38.6179 65.957 38.9596 65.5265C39.6439 64.6644 40.5151 63.6866 41.4042 62.745C43.1541 60.8916 45.0906 59.0545 45.8783 58.5067L45.8786 58.5065C50.4581 55.3197 55.8292 53.8417 61.1167 55.2585C65.994 56.5653 69.7014 60.0408 72.1094 64.5353C73.0306 60.4345 73.2372 56.2055 72.729 52.0472ZM66.4933 77.3113C68.5972 74.2866 70.1909 71.0147 71.2743 67.6154C71.1132 67.1212 70.9761 66.7469 70.8795 66.5415L70.8793 66.5412C68.6885 61.8782 65.1779 58.4172 60.5991 57.1903C56.0202 55.9634 51.2495 57.2055 47.0207 60.1483L47.0204 60.1485C46.427 60.5611 44.6223 62.2498 42.8584 64.118C41.9904 65.0373 41.1615 65.9694 40.5261 66.7699C40.2079 67.1708 39.948 67.5265 39.7582 67.823C39.556 68.139 39.4785 68.3192 39.4611 68.3838L39.4142 68.5574L39.3098 68.7038C36.4141 72.7645 36.0724 77.7103 37.6221 82.0532C38.9312 85.7172 41.9982 88.5204 46.1325 90.5325L45.6949 91.4317L46.1318 90.5322C46.1287 90.5306 46.1289 90.5307 46.1335 90.5326C46.1433 90.5366 46.173 90.5488 46.2317 90.5705C46.3073 90.5984 46.4082 90.6338 46.5337 90.6763C46.7841 90.7611 47.115 90.8683 47.5031 90.9911C47.6616 91.0413 47.829 91.0938 48.0035 91.1482C51.604 89.956 55.0557 88.188 58.2147 85.8442C56.5331 86.2225 54.7344 86.2101 52.9514 85.7323C50.0402 84.9523 47.7131 83.077 46.3081 80.6768C44.903 78.2763 44.4168 75.3445 45.1905 72.4571C45.9642 69.5698 47.8511 67.2738 50.2682 65.8975C52.6851 64.5214 55.638 64.0608 58.5492 64.8409C61.4605 65.621 63.7876 67.4963 65.1925 69.8965C66.4672 72.074 66.9856 74.689 66.4933 77.3113ZM51.2578 67.6355C53.2332 66.5107 55.6461 66.1336 58.0316 66.7728C60.4171 67.412 62.3182 68.945 63.4665 70.9068C64.6147 72.8683 65.007 75.2521 64.3783 77.5985C63.7496 79.9449 62.2179 81.8131 60.2428 82.9377C58.2674 84.0625 55.8546 84.4397 53.469 83.8005C51.0835 83.1613 49.1825 81.6282 48.0342 79.6664C46.886 77.7049 46.4936 75.3212 47.1224 72.9748C47.7511 70.6283 49.2827 68.7601 51.2578 67.6355Z"
    fill="url(#rings_linear)" />
  <defs>
    <linearGradient id="rings_linear" x1="55.8812" y1="35.5" x2="55.8812" y2="103" gradientUnits="userSpaceOnUse">
      <stop stop-color="#F9B300" />
      <stop offset="1" stop-color="#FFE500" />
    </linearGradient>
  </defs>
</svg>