<svg width="16" height="16" viewBox="0 0 16 16" fill="none" xmlns="http://www.w3.org/2000/svg">
  <path fill-rule="evenodd" clip-rule="evenodd"
    d="M1.25 8C1.25 4.27208 4.27208 1.25 8 1.25C11.7279 1.25 14.75 4.27208 14.75 8C14.75 11.7279 11.7279 14.75 8 14.75C4.27208 14.75 1.25 11.7279 1.25 8ZM8 2.75C5.10051 2.75 2.75 5.10051 2.75 8C2.75 9.17926 3.13881 10.2677 3.79523 11.1442L11.1442 3.79523C10.2677 3.13881 9.17926 2.75 8 2.75ZM12.2048 4.8559L4.8559 12.2048C5.73233 12.8612 6.82076 13.25 8 13.25C10.8995 13.25 13.25 10.8995 13.25 8C13.25 6.82076 12.8612 5.73233 12.2048 4.8559Z"
    fill="currentColor" />
</svg>