<svg width="24" height="24" viewBox="0 0 24 24" fill="none" xmlns="http://www.w3.org/2000/svg">
  <path
    d="M12.75 4.5C12.75 4.08579 12.4142 3.75 12 3.75C11.5858 3.75 11.25 4.08579 11.25 4.5V7.5C11.25 7.91421 11.5858 8.25 12 8.25C12.4142 8.25 12.75 7.91421 12.75 7.5V4.5Z"
    fill="currentColor" />
  <path fill-rule="evenodd" clip-rule="evenodd"
    d="M7 20.5H13.1368C14.0404 20.5 14.9248 20.2388 15.6834 19.7478L20.7041 16.4983C21.9858 15.6688 22.4205 13.9969 21.7052 12.6481C20.9507 11.2255 19.1931 10.6732 17.7605 11.4086L15.794 12.418C15.7886 12.3303 15.7794 12.2422 15.7662 12.1537C15.5376 10.6168 14.1931 9.49541 12.64 9.5465L9.1702 9.66066C6.00892 9.76466 3.5 12.3575 3.5 15.5205V17C3.5 18.933 5.067 20.5 7 20.5ZM15.0516 14.4852L18.4455 12.743C19.148 12.3824 20.01 12.6532 20.38 13.3509C20.7308 14.0124 20.5176 14.8322 19.889 15.2391L14.8684 18.4885C14.3526 18.8224 13.7512 19 13.1368 19H7C5.89543 19 5 18.1046 5 17V15.5205C5 13.1667 6.86703 11.2372 9.21952 11.1598L12.6894 11.0457C13.4808 11.0197 14.166 11.5911 14.2825 12.3744C14.3284 12.6826 14.2805 12.9841 14.1597 13.2492C13.9607 13.6859 13.5637 14.0237 13.0613 14.1293L10.3546 14.6983C10.2575 14.7187 10.1879 14.8044 10.1879 14.9036C10.1879 15.021 10.2843 15.1156 10.4016 15.1134L12.7252 15.0703C12.9016 15.067 13.0772 15.055 13.2516 15.0343C13.8781 14.9601 14.4878 14.7746 15.0516 14.4852Z"
    fill="currentColor" />
  <path
    d="M7.125 5.2524C7.48372 5.0453 7.94241 5.1682 8.14952 5.52692L9.64952 8.125C9.85663 8.48372 9.73372 8.94241 9.375 9.14952C9.01628 9.35663 8.55759 9.23372 8.35048 8.875L6.85048 6.27692C6.64337 5.9182 6.76628 5.45951 7.125 5.2524Z"
    fill="currentColor" />
  <path
    d="M15.8505 5.52692C16.0576 5.1682 16.5163 5.0453 16.875 5.2524C17.2337 5.45951 17.3566 5.9182 17.1495 6.27692L15.6495 8.875C15.4424 9.23372 14.9837 9.35663 14.625 9.14952C14.2663 8.94241 14.1434 8.48372 14.3505 8.125L15.8505 5.52692Z"
    fill="currentColor" />
</svg>