<svg width="16" height="16" viewBox="0 0 16 16" fill="none" xmlns="http://www.w3.org/2000/svg">
  <path
    d="M13.2567 2.65379C13.6178 2.23589 13.5717 1.60441 13.1538 1.24333C12.7359 0.882248 12.1044 0.928309 11.7433 1.34621L7.28505 6.50604L5.22914 4.31563C4.85117 3.91294 4.21833 3.8929 3.81563 4.27086C3.41294 4.64883 3.3929 5.28168 3.77086 5.68437L6.58665 8.68437C6.78058 8.89098 7.05306 9.00562 7.33636 8.99979C7.61967 8.99396 7.8872 8.86821 8.07246 8.65379L13.2567 2.65379Z"
    fill="currentColor" />
  <path
    d="M4 9C4 8.44772 3.55228 8 3 8C2.44772 8 2 8.44772 2 9V12C2 13.1046 2.89543 14 4 14H12C13.1046 14 14 13.1046 14 12V9C14 8.44772 13.5523 8 13 8C12.4477 8 12 8.44772 12 9V12H4V9Z"
    fill="currentColor" />
</svg>