<svg width="16" height="16" viewBox="0 0 16 16" fill="none" xmlns="http://www.w3.org/2000/svg">
  <path
    d="M7.54688 7.25C7.54688 6.69772 7.09916 6.25 6.54688 6.25C5.99459 6.25 5.54688 6.69772 5.54688 7.25C5.54688 7.80228 5.99459 8.25 6.54688 8.25C7.09916 8.25 7.54688 7.80228 7.54688 7.25Z"
    fill="currentColor" />
  <path
    d="M11.0469 7.25C11.0469 6.69772 10.5992 6.25 10.0469 6.25C9.49459 6.25 9.04688 6.69772 9.04688 7.25C9.04688 7.80228 9.49459 8.25 10.0469 8.25C10.5992 8.25 11.0469 7.80228 11.0469 7.25Z"
    fill="currentColor" />
  <path fill-rule="evenodd" clip-rule="evenodd"
    d="M2 4.25C2 3.00736 3.00736 2 4.25 2H12.25C13.4926 2 14.5 3.00736 14.5 4.25V10.25C14.5 11.4926 13.4926 12.5 12.25 12.5H8.71353L7.92082 14.0854C7.73558 14.4559 7.28507 14.6061 6.91459 14.4208C6.54411 14.2356 6.39394 13.7851 6.57918 13.4146L7.03647 12.5H4.25C3.00736 12.5 2 11.4926 2 10.25V4.25ZM8.26624 11C8.25579 10.9998 8.24534 10.9998 8.23492 11H4.25C3.83579 11 3.5 10.6642 3.5 10.25V4.25C3.5 3.83579 3.83579 3.5 4.25 3.5H12.25C12.6642 3.5 13 3.83579 13 4.25V10.25C13 10.6642 12.6642 11 12.25 11H8.26624Z"
    fill="currentColor" />
</svg>