<svg width="24" height="24" viewBox="0 0 24 24" fill="none" xmlns="http://www.w3.org/2000/svg">
  <path
    d="M8.5 12.5C9.05228 12.5 9.5 12.0523 9.5 11.5C9.5 10.9477 9.05228 10.5 8.5 10.5C7.94772 10.5 7.5 10.9477 7.5 11.5C7.5 12.0523 7.94772 12.5 8.5 12.5Z"
    fill="currentColor" />
  <path
    d="M15.5 12.5C16.0523 12.5 16.5 12.0523 16.5 11.5C16.5 10.9477 16.0523 10.5 15.5 10.5C14.9477 10.5 14.5 10.9477 14.5 11.5C14.5 12.0523 14.9477 12.5 15.5 12.5Z"
    fill="currentColor" />
  <path
    d="M13 11.5C13 12.0523 12.5523 12.5 12 12.5C11.4477 12.5 11 12.0523 11 11.5C11 10.9477 11.4477 10.5 12 10.5C12.5523 10.5 13 10.9477 13 11.5Z"
    fill="currentColor" />
  <path fill-rule="evenodd" clip-rule="evenodd"
    d="M6.5 17.75H9.59861L8.37596 19.584C8.1462 19.9286 8.23933 20.3943 8.58397 20.624C8.92862 20.8538 9.39427 20.7607 9.62404 20.416L11.4014 17.75H17.5C18.7426 17.75 19.75 16.7426 19.75 15.5V7.5C19.75 6.25736 18.7426 5.25 17.5 5.25H6.5C5.25736 5.25 4.25 6.25736 4.25 7.5V15.5C4.25 16.7426 5.25736 17.75 6.5 17.75ZM6.5 6.75C6.08579 6.75 5.75 7.08579 5.75 7.5V15.5C5.75 15.9142 6.08579 16.25 6.5 16.25H10.9898C10.997 16.2499 11.0043 16.2499 11.0116 16.25H17.5C17.9142 16.25 18.25 15.9142 18.25 15.5V7.5C18.25 7.08579 17.9142 6.75 17.5 6.75H6.5Z"
    fill="currentColor" />
</svg>