<svg width="16" height="16" viewBox="0 0 16 16" fill="none" xmlns="http://www.w3.org/2000/svg">
  <path
    d="M5.47537 3.12502C3.92507 3.12502 2.73807 4.50446 2.96927 6.03742L3.14508 7.20313C3.19274 7.51912 3.30183 7.81249 3.45894 8.07187L2.19242 8.84081C1.65734 9.16568 1.29271 9.70995 1.19583 10.3284L1.09841 10.9504C0.940047 11.9614 1.72168 12.875 2.74499 12.875H5.07612H5.87372H8.21338C9.23201 12.875 10.0124 11.9693 9.86173 10.9619L9.76901 10.3417C9.67544 9.71597 9.30788 9.16444 8.76634 8.83721L7.49391 8.06837C7.64989 7.80985 7.75821 7.51769 7.80566 7.20313L7.98147 6.03742C8.21267 4.50446 7.02566 3.12502 5.47537 3.12502Z"
    stroke="currentColor" stroke-width="1.5" stroke-linejoin="round" />
  <path fill-rule="evenodd" clip-rule="evenodd"
    d="M10.9705 13.625H11.8799C13.3569 13.625 14.4884 12.3117 14.27 10.851L14.1773 10.2308C14.0507 9.3842 13.5534 8.63801 12.8207 8.1953L12.111 7.76647C12.1559 7.62061 12.1904 7.46986 12.2138 7.31498L12.3896 6.14927C12.6892 4.16267 11.1509 2.37502 9.14188 2.37502C8.97111 2.37502 8.80375 2.38793 8.64062 2.41278C9.08677 2.84847 9.44239 3.37411 9.67935 3.95705C10.4917 4.2128 11.0411 5.03216 10.9064 5.92557L10.7525 6.94561L10.7305 7.09129C10.6985 7.30409 10.6255 7.50188 10.5205 7.67719C10.9536 8.09214 11.2912 8.59686 11.5094 9.1555L12.045 9.47913C12.3954 9.69086 12.6332 10.0477 12.6938 10.4526L12.7865 11.0728C12.8693 11.6268 12.4401 12.125 11.8799 12.125H11.7649C11.62 12.6857 11.3444 13.1983 10.9705 13.625Z"
    fill="currentColor" />
</svg>

<svg width="16" height="16" viewBox="0 0 16 16" fill="none" xmlns="http://www.w3.org/2000/svg">
  <path
    d="M6.47537 3.12502C4.92507 3.12502 3.73807 4.50446 3.96927 6.03742L4.14508 7.20313C4.19274 7.51912 4.30183 7.81249 4.45894 8.07187L3.19242 8.84081C2.65734 9.16568 2.29271 9.70995 2.19583 10.3284L2.09841 10.9504C1.94005 11.9614 2.72168 12.875 3.74499 12.875H6.07612H6.87372H9.21338C10.232 12.875 11.0124 11.9693 10.8617 10.9619L10.769 10.3417C10.6754 9.71597 10.3079 9.16444 9.76634 8.83721L8.49391 8.06837C8.64989 7.80985 8.75821 7.51769 8.80566 7.20313L8.98147 6.03742C9.21267 4.50446 8.02566 3.12502 6.47537 3.12502Z"
    stroke="black" stroke-width="1.5" stroke-linejoin="round" />
  <path fill-rule="evenodd" clip-rule="evenodd"
    d="M11.9705 13.625H12.8799C14.3569 13.625 15.4884 12.3117 15.27 10.851L15.1773 10.2308C15.0507 9.3842 14.5534 8.63801 13.8207 8.1953L13.111 7.76647C13.1559 7.62061 13.1904 7.46986 13.2138 7.31498L13.3896 6.14927C13.6892 4.16267 12.1509 2.37502 10.1419 2.37502C9.97111 2.37502 9.80375 2.38793 9.64062 2.41278C10.0868 2.84847 10.4424 3.37411 10.6793 3.95705C11.4917 4.2128 12.0411 5.03216 11.9064 5.92557L11.7525 6.94561L11.7305 7.09129C11.6985 7.30409 11.6255 7.50188 11.5205 7.67719C11.9536 8.09214 12.2912 8.59686 12.5094 9.1555L13.045 9.47913C13.3954 9.69086 13.6332 10.0477 13.6938 10.4526L13.7865 11.0728C13.8693 11.6268 13.4401 12.125 12.8799 12.125H12.7649C12.62 12.6857 12.3444 13.1983 11.9705 13.625Z"
    fill="black" />
</svg>