<svg width="16" height="16" viewBox="0 0 16 16" fill="none" xmlns="http://www.w3.org/2000/svg">
  <path
    d="M7.42211 13.9794C6.99477 13.9805 6.58434 13.8124 6.28055 13.5117C6.02526 13.2591 5.86275 12.9302 5.81536 12.578C5.2278 12.5649 4.76733 12.3886 4.42096 12.129C4.18131 11.9493 4.02323 11.7493 3.92339 11.5893C3.87338 11.5091 3.83715 11.4376 3.81182 11.3815C3.79912 11.3533 3.78903 11.3287 3.78123 11.3084C3.77891 11.3024 3.77679 11.2968 3.77486 11.2915C3.67392 11.039 3.56243 10.9036 3.49958 10.8407C3.47025 10.8113 3.44905 10.7952 3.44067 10.7892C3.41645 10.7763 3.39295 10.762 3.37027 10.7465C3.22442 10.6466 2.98761 10.4703 2.87353 10.1978C2.80094 10.0245 2.76856 9.78573 2.87466 9.54208C2.97068 9.32159 3.13529 9.20251 3.23436 9.146C3.41631 9.0422 3.60544 9.01988 3.66904 9.01287C3.71575 9.00772 3.7563 9.00548 3.78543 9.00446C3.79618 9.00409 3.80583 9.00387 3.81417 9.00374C3.54877 8.47356 3.40645 7.82203 3.40645 7.03846C3.40645 6.33651 3.61366 5.72655 3.96536 5.22131C3.88794 4.81387 3.86877 4.2051 4.15169 3.48721C4.23425 3.2777 4.40658 3.11639 4.62107 3.04781L4.84946 3.76219C4.62107 3.04781 4.62179 3.04758 4.62251 3.04735L4.62396 3.04689L4.62692 3.04597L4.63299 3.04411L4.64579 3.04036C4.65462 3.03785 4.66402 3.03532 4.67401 3.03283C4.694 3.02785 4.71625 3.02299 4.74079 3.01857C4.78994 3.0097 4.84774 3.00265 4.91424 2.99961C5.04772 2.99351 5.21244 3.00374 5.40904 3.04517C5.74158 3.11523 6.16038 3.27333 6.67518 3.58738C7.13559 3.4872 7.60568 3.43619 8.07751 3.43541L8.08185 3.4354L8.08185 3.43541C8.55015 3.43735 9.02482 3.48667 9.48402 3.58674C9.99784 3.2732 10.4159 3.11525 10.748 3.04521C10.9444 3.00376 11.1091 2.9935 11.2426 2.99961C11.3091 3.00265 11.3669 3.00972 11.4161 3.0186C11.4406 3.02304 11.4629 3.0279 11.4829 3.0329C11.4929 3.0354 11.5023 3.03792 11.5111 3.04044L11.524 3.0442L11.53 3.04607L11.533 3.047L11.5345 3.04746C11.5352 3.04769 11.5359 3.04792 11.3072 3.76219L11.5359 3.04792C11.7501 3.1165 11.9222 3.27756 12.0048 3.48671C12.2882 4.20459 12.2695 4.81341 12.1922 5.22112C12.5444 5.72702 12.7502 6.33747 12.7502 7.03847C12.7502 8.38306 12.3322 9.33832 11.5914 9.95827C11.1983 10.2873 10.7489 10.4913 10.302 10.6214C10.3403 10.8049 10.3604 11.0016 10.3604 11.2094C10.3604 11.6217 10.3597 11.9123 10.3589 12.1002L10.3579 12.3074L10.3575 12.3576L10.3574 12.3702L10.3574 12.3731L10.3574 12.3734L10.3574 12.3743L10.3574 12.3745L10.3574 12.3746V12.3746L9.60741 12.3679C9.60582 12.5972 9.51348 12.8166 9.35058 12.9781C9.18768 13.1395 8.96749 13.2299 8.73814 13.2294L7.42211 13.9794ZM7.42211 13.9794H8.73779H7.42108H7.42211ZM3.84498 9.06369C3.84503 9.06381 3.84509 9.06392 3.84515 9.06403L3.83624 9.7536C3.84176 9.32687 3.84406 9.14296 3.84498 9.06369Z"
    stroke="currentColor" stroke-width="1.5" stroke-linejoin="round" />
</svg>