<svg width="16" height="16" viewBox="0 0 16 16" fill="none" xmlns="http://www.w3.org/2000/svg">
  <path fill-rule="evenodd" clip-rule="evenodd"
    d="M1.23019 8.19399C1.01578 7.39379 1.49066 6.57129 2.29085 6.35688L3.01978 6.16156C5.08857 5.60723 7.02501 4.64319 8.71431 3.32659L10.5312 1.91054C11.0959 1.47044 11.9266 1.74893 12.1119 2.44046L14.1778 10.1507C14.3631 10.8422 13.7829 11.4987 13.0739 11.3999L10.7924 11.082C9.14635 10.8527 7.4776 10.8816 5.84592 11.1651L6.71184 13.7628C6.84283 14.1558 6.63046 14.5805 6.2375 14.7115C5.84454 14.8425 5.4198 14.6301 5.28882 14.2372L4.374 11.4927L3.71436 11.6695C2.91416 11.8839 2.09165 11.409 1.87724 10.6088L1.23019 8.19399ZM9.6364 4.5097L10.8582 3.55742L12.5336 9.81017L10.9994 9.5964C8.67923 9.27313 6.31779 9.41897 4.05505 10.0253L3.32613 10.2206L2.67908 7.80576L3.408 7.61045C5.67074 7.00415 7.78873 5.94973 9.6364 4.5097Z"
    fill="currentColor" />
</svg>