<svg width="24" height="24" viewBox="0 0 24 24" fill="none" xmlns="http://www.w3.org/2000/svg">
  <path fill-rule="evenodd" clip-rule="evenodd"
    d="M12 12C16.1421 12 19.5 10.2091 19.5 8C19.5 5.79086 16.1421 4 12 4C7.85786 4 4.5 5.79086 4.5 8C4.5 10.2091 7.85786 12 12 12ZM16.5974 9.5049C17.7618 8.88391 18 8.28091 18 8C18 7.71909 17.7618 7.11609 16.5974 6.4951C15.4975 5.90849 13.8747 5.5 12 5.5C10.1253 5.5 8.50248 5.90849 7.40258 6.4951C6.23823 7.11609 6 7.71909 6 8C6 8.28091 6.23823 8.88391 7.40258 9.5049C8.50248 10.0915 10.1253 10.5 12 10.5C13.8747 10.5 15.4975 10.0915 16.5974 9.5049Z"
    fill="currentColor" />
  <path
    d="M15.0073 17.1491C15.2851 17.3042 15.4104 17.4293 15.4653 17.5C15.4018 17.5819 15.244 17.7365 14.8647 17.9261C14.2091 18.254 13.1983 18.5 12 18.5C10.8017 18.5 9.79093 18.254 9.13529 17.9261C8.75599 17.7365 8.59821 17.5819 8.53472 17.5C8.58959 17.4293 8.71487 17.3042 8.99267 17.1491C8.40221 17.0037 7.84801 16.8149 7.34467 16.5861C7.12218 16.8692 7 17.1775 7 17.5C7 18.8807 9.23858 20 12 20C14.7614 20 17 18.8807 17 17.5C17 17.1774 16.8778 16.8692 16.6553 16.5861C16.152 16.8149 15.5978 17.0037 15.0073 17.1491Z"
    fill="currentColor" />
  <path
    d="M16.4899 12.9636C16.4793 12.9378 16.4559 12.8923 16.4068 12.8298C16.9055 12.6655 17.3765 12.4727 17.8128 12.2536C17.935 12.4922 18 12.7423 18 13C18 14.6569 15.3137 16 12 16C8.68629 16 6 14.6569 6 13C6 12.7423 6.06498 12.4922 6.18719 12.2536C6.62354 12.4727 7.09449 12.6655 7.59322 12.8298C7.54407 12.8923 7.5207 12.9378 7.51014 12.9636C7.50416 12.9782 7.50186 12.9874 7.50096 12.9919C7.5001 12.9961 7.5 13 7.5 13C7.5 13 7.5001 13.0039 7.50096 13.0082C7.50186 13.0126 7.50416 13.0219 7.51014 13.0365C7.52226 13.0661 7.55125 13.1216 7.61672 13.199C7.75353 13.3607 8.01029 13.5708 8.42818 13.7797C9.26479 14.198 10.5255 14.5 12 14.5C13.4745 14.5 14.7352 14.198 15.5718 13.7797C15.9897 13.5708 16.2465 13.3607 16.3833 13.199C16.4487 13.1216 16.4777 13.0661 16.4899 13.0365C16.4958 13.0219 16.4981 13.0126 16.499 13.0082C16.4999 13.0039 16.5 13 16.5 13C16.5 13 16.4999 12.9961 16.499 12.9919C16.4981 12.9874 16.4958 12.9782 16.4899 12.9636Z"
    fill="currentColor" />
</svg>