<svg width="16" height="16" viewBox="0 0 16 16" fill="none" xmlns="http://www.w3.org/2000/svg">
  <path fill-rule="evenodd" clip-rule="evenodd"
    d="M12 4C12 5.10457 10.2091 6 8 6C5.79086 6 4 5.10457 4 4C4 2.89543 5.79086 2 8 2C10.2091 2 12 2.89543 12 4ZM10.5429 3.80454C10.5429 3.80454 10.541 3.80994 10.533 3.8197C10.5383 3.80925 10.5429 3.80454 10.5429 3.80454ZM10.1576 3.92743C10.2089 3.95309 10.2537 3.97735 10.2928 4C10.2537 4.02265 10.2089 4.04691 10.1576 4.07257C9.68293 4.30991 8.9222 4.5 8 4.5C7.0778 4.5 6.31707 4.30991 5.84239 4.07257C5.79107 4.04691 5.74625 4.02265 5.70717 4C5.74625 3.97735 5.79107 3.95309 5.84239 3.92743C6.31707 3.69009 7.0778 3.5 8 3.5C8.9222 3.5 9.68293 3.69009 10.1576 3.92743ZM5.45706 3.80454C5.45706 3.80454 5.46169 3.80925 5.46696 3.8197C5.45903 3.80994 5.45706 3.80454 5.45706 3.80454ZM5.45706 4.19546C5.45706 4.19546 5.45903 4.19006 5.46696 4.1803C5.46169 4.19075 5.45706 4.19546 5.45706 4.19546ZM10.533 4.18029C10.541 4.19006 10.5429 4.19546 10.5429 4.19546C10.5429 4.19546 10.5383 4.19075 10.533 4.18029Z"
    fill="currentColor" />
  <path
    d="M10.8101 7.04717C11.0515 6.96169 11.282 6.86448 11.4992 6.75586C11.7631 6.62394 12.0478 6.45223 12.3174 6.23825C12.7513 6.60861 13 7.03978 13 7.5C13 8.88071 10.7614 10 8 10C5.23858 10 3 8.88071 3 7.5C3 7.03978 3.24871 6.60861 3.68259 6.23825C3.95219 6.45223 4.23691 6.62394 4.50075 6.75586C4.71799 6.86448 4.94851 6.96169 5.18986 7.04717C5.17141 7.05601 5.15321 7.06491 5.13529 7.07388C4.75599 7.26352 4.59821 7.41812 4.53472 7.5C4.59821 7.58188 4.75599 7.73648 5.13529 7.92613C5.79093 8.25395 6.80166 8.5 8 8.5C9.19834 8.5 10.2091 8.25395 10.8647 7.92613C11.244 7.73648 11.4018 7.58188 11.4653 7.5C11.4018 7.41812 11.244 7.26352 10.8647 7.07388C10.8468 7.06491 10.8286 7.05601 10.8101 7.04717Z"
    fill="currentColor" />
  <path
    d="M12.1939 10.6156L12.2064 10.6094C12.6261 10.3995 13.0715 10.1149 13.4571 9.75121C13.8057 10.1314 14 10.5544 14 11C14 12.6569 11.3137 14 8 14C4.68629 14 2 12.6569 2 11C2 10.5544 2.19433 10.1314 2.54294 9.75121C2.9285 10.1149 3.37391 10.3995 3.79365 10.6094L3.80614 10.6156C3.72714 10.6819 3.66459 10.7444 3.61672 10.801C3.55125 10.8784 3.52226 10.9339 3.51014 10.9636C3.50416 10.9782 3.50186 10.9874 3.50096 10.9918C3.5001 10.9961 3.5 11 3.5 11C3.5 11 3.5001 11.0039 3.50096 11.0082C3.50186 11.0126 3.50416 11.0219 3.51014 11.0365C3.52226 11.0661 3.55125 11.1216 3.61672 11.199C3.75353 11.3607 4.01029 11.5707 4.42818 11.7797C5.26479 12.198 6.52552 12.5 8 12.5C9.47448 12.5 10.7352 12.198 11.5718 11.7797C11.9897 11.5707 12.2465 11.3607 12.3833 11.199C12.4487 11.1216 12.4777 11.0661 12.4899 11.0365C12.4958 11.0219 12.4981 11.0126 12.499 11.0082C12.4999 11.0039 12.5 11 12.5 11C12.5 11 12.4999 10.9961 12.499 10.9918C12.4981 10.9874 12.4958 10.9782 12.4899 10.9636C12.4777 10.9339 12.4487 10.8784 12.3833 10.801C12.3354 10.7444 12.2729 10.6819 12.1939 10.6156Z"
    fill="currentColor" />
</svg>