<svg width="16" height="16" viewBox="0 0 16 16" fill="none" xmlns="http://www.w3.org/2000/svg">
  <path fill-rule="evenodd" clip-rule="evenodd"
    d="M4.32752 6.02627C3.94431 3.73526 5.89787 2 7.98174 2C10.0656 2 12.0192 3.73525 11.6359 6.02627L11.4193 7.32173L9.93981 7.07426L10.1565 5.7788C10.3571 4.57934 9.32706 3.5 7.98174 3.5C6.63641 3.5 5.60634 4.57934 5.80697 5.7788L6.02366 7.07427C6.02703 7.09439 6.03076 7.1144 6.03485 7.13428C6.14092 7.64997 6.48779 8.08089 6.9603 8.33771L4.41517 9.73098C3.98843 9.96458 3.69764 10.356 3.62038 10.8007L3.5003 11.4919C3.39295 12.1098 3.92281 12.6682 4.61649 12.6682H11.3564C12.0469 12.6682 12.5759 12.1147 12.4738 11.4989L12.3595 10.8098C12.2849 10.3598 11.9918 9.96319 11.5599 9.72789L9.00569 8.33634C9.47782 8.07887 9.82407 7.6474 9.92923 7.13133C9.93308 7.11242 9.93661 7.0934 9.93981 7.07426L11.4193 7.32173C11.3876 7.51079 11.3398 7.69246 11.2776 7.86594L12.2775 8.4107C13.0783 8.84699 13.6826 9.6193 13.8393 10.5644L13.9536 11.2535C14.2365 12.9599 12.7849 14.1682 11.3564 14.1682H4.61649C3.18199 14.1682 1.72475 12.9487 2.02243 11.2352L2.14251 10.5439C2.30466 9.61058 2.90338 8.84852 3.6949 8.41522L4.68791 7.87163C4.62476 7.69643 4.57619 7.51286 4.54422 7.32173L4.32752 6.02627Z"
    fill="currentColor" />
</svg>