<svg width="24" height="24" viewBox="0 0 24 24" fill="none" xmlns="http://www.w3.org/2000/svg">
  <path
    d="M9.5 11.25C9.08579 11.25 8.75 11.5858 8.75 12C8.75 12.4142 9.08579 12.75 9.5 12.75H14.5C14.9142 12.75 15.25 12.4142 15.25 12C15.25 11.5858 14.9142 11.25 14.5 11.25H9.5Z"
    fill="currentColor" />
  <path fill-rule="evenodd" clip-rule="evenodd"
    d="M14.8843 4.75482C15.6882 4.75482 16.431 5.18367 16.8329 5.87982L19.7169 10.875C20.1188 11.5712 20.1188 12.4289 19.7169 13.125L16.8329 18.1202C16.431 18.8164 15.6882 19.2452 14.8843 19.2452L9.1164 19.2452C8.31255 19.2452 7.56976 18.8164 7.16784 18.1202L4.28386 13.125C3.88194 12.4289 3.88194 11.5712 4.28386 10.875L7.16784 5.87982C7.56976 5.18367 8.31255 4.75482 9.1164 4.75482H14.8843ZM15.5339 6.62982C15.3999 6.39777 15.1523 6.25482 14.8843 6.25482L9.1164 6.25482C8.84845 6.25482 8.60085 6.39777 8.46688 6.62982L5.5829 11.625C5.44893 11.8571 5.44893 12.143 5.5829 12.375L8.46688 17.3702C8.60085 17.6023 8.84845 17.7452 9.1164 17.7452L14.8843 17.7452C15.1523 17.7452 15.3999 17.6023 15.5339 17.3702L18.4178 12.375C18.5518 12.143 18.5518 11.8571 18.4178 11.625L15.5339 6.62982Z"
    fill="currentColor" />
</svg>