<svg width="16" height="16" viewBox="0 0 16 16" fill="none" xmlns="http://www.w3.org/2000/svg">
  <path
    d="M7.03035 0.96967C7.32325 1.26256 7.32325 1.73744 7.03035 2.03033L6.31068 2.75H9.50002C10.8803 2.75 12.0231 3.76688 12.22 5.09234C11.7079 5.00426 11.1845 5.01054 10.686 5.10402C10.5204 4.60775 10.052 4.25 9.50002 4.25H4.50002C4.19668 4.25 3.9232 4.06727 3.80711 3.78701C3.69103 3.50676 3.75519 3.18417 3.96969 2.96967L5.96969 0.96967C6.26259 0.676777 6.73746 0.676777 7.03035 0.96967Z"
    fill="currentColor" />
  <path fill-rule="evenodd" clip-rule="evenodd"
    d="M12.8896 10.8736L9.74091 12.8739C9.08712 13.2892 8.31985 13.5 7.55107 13.5H3.96515C2.54986 13.5 1 12.4711 1 10.7417V9.44472C1 7.1605 3.03102 5.63675 5.11619 5.56941L7.21953 5.50149C8.22163 5.46913 9.33883 6.01048 9.77719 7.05961L10.2846 6.80397C11.4229 6.23043 13.03 6.5329 13.7246 7.81843C14.3466 8.96965 13.865 10.254 12.8896 10.8736ZM8.94659 9.15772L10.9595 8.14355C11.4802 7.88121 12.1508 8.06119 12.4049 8.53148C12.6093 8.90981 12.4758 9.35945 12.0853 9.60748L8.93659 11.6077C8.53555 11.8625 8.04989 12 7.55107 12H3.96515C3.15597 12 2.5 11.4366 2.5 10.7417V9.44472C2.5 8.16628 3.67706 7.11667 5.1646 7.06863L7.26795 7.00071C7.81431 6.98307 8.29248 7.2961 8.42707 7.73984C8.43918 7.77976 8.44851 7.82073 8.45486 7.86262C8.47049 7.96578 8.46699 8.06761 8.44658 8.16533C8.36769 8.54316 8.0361 8.85947 7.58068 8.95344L5.94463 9.29103C5.87475 9.30544 5.82549 9.35912 5.82549 9.42084C5.82549 9.49569 5.89712 9.55591 5.98424 9.55432L7.42308 9.52813C7.51452 9.52646 7.60562 9.52137 7.69613 9.51292C8.13646 9.47181 8.56278 9.3511 8.94659 9.15772Z"
    fill="currentColor" />
</svg>