<svg width="16" height="16" viewBox="0 0 16 16" fill="none" xmlns="http://www.w3.org/2000/svg">
  <path
    d="M5.75 9.32841C5.75 8.91419 6.08579 8.57841 6.5 8.57841H7.25V7.82841C7.25 7.41419 7.58579 7.07841 8 7.07841C8.41421 7.07841 8.75 7.41419 8.75 7.82841V8.57841H9.5C9.91421 8.57841 10.25 8.91419 10.25 9.32841C10.25 9.74262 9.91421 10.0784 9.5 10.0784H8.75V10.8284C8.75 11.2426 8.41421 11.5784 8 11.5784C7.58579 11.5784 7.25 11.2426 7.25 10.8284V10.0784H6.5C6.08579 10.0784 5.75 9.74262 5.75 9.32841Z"
    fill="currentColor" />
  <path fill-rule="evenodd" clip-rule="evenodd"
    d="M11.9962 4.83192C12.5744 3.58574 11.7004 2 10.1717 2H9.50041C9.08253 1.68604 8.56307 1.5 8.00016 1.5C7.43725 1.5 6.91779 1.68604 6.49992 2H5.82859C4.29977 2 3.42578 3.58595 4.00425 4.83217C3.45346 5.25671 3.01122 5.82616 2.73879 6.49923L1.72688 8.99923C0.662512 11.6289 2.5978 14.5 5.43467 14.5H10.5661C13.403 14.5 15.3383 11.6289 14.2739 8.99923L13.262 6.49923C12.9895 5.82602 12.5471 5.25649 11.9962 4.83192ZM8.9997 3.5L8.59939 3.19924C8.43238 3.07376 8.22705 3 8.00016 3C7.77327 3 7.56794 3.07376 7.40093 3.19924L7.00062 3.5H5.82859C5.62613 3.5 5.49228 3.58984 5.40632 3.73058C5.30812 3.89138 5.30419 4.07 5.36482 4.20061L5.86966 5.28821L4.91998 6.02021C4.57557 6.28567 4.29959 6.64107 4.12921 7.06202L3.1173 9.56202C2.45207 11.2055 3.66163 13 5.43467 13H10.5661C12.3391 13 13.5487 11.2055 12.8835 9.56202L11.8716 7.06202C11.7011 6.64099 11.4251 6.28554 11.0806 6.02006L10.1309 5.28818L10.6355 4.20056C10.6961 4.06995 10.6922 3.89133 10.594 3.73056C10.508 3.58983 10.3742 3.5 10.1717 3.5H8.9997Z"
    fill="currentColor" />
</svg>