<svg width="24" height="24" viewBox="0 0 24 24" fill="none" xmlns="http://www.w3.org/2000/svg">
  <path fill-rule="evenodd" clip-rule="evenodd"
    d="M19.75 9.25V8C19.75 6.48122 18.5188 5.25 17 5.25H7C5.48122 5.25 4.25 6.48122 4.25 8V17C4.25 18.5188 5.48122 19.75 7 19.75H17C18.5188 19.75 19.75 18.5188 19.75 17V15.75H20C20.4142 15.75 20.75 15.4142 20.75 15V10C20.75 9.58579 20.4142 9.25 20 9.25H19.75ZM7 6.75C6.30964 6.75 5.75 7.30964 5.75 8V17C5.75 17.6904 6.30964 18.25 7 18.25H17C17.6904 18.25 18.25 17.6904 18.25 17V15.75H15.5C13.7051 15.75 12.25 14.2949 12.25 12.5C12.25 10.7051 13.7051 9.25 15.5 9.25H18.25V8C18.25 7.30964 17.6904 6.75 17 6.75H7ZM13.75 12.5C13.75 11.5335 14.5335 10.75 15.5 10.75H19.25V14.25H15.5C14.5335 14.25 13.75 13.4665 13.75 12.5Z"
    fill="currentColor" />
</svg>